<svg viewBox="-50.000000 -1491.055908 2819.230957 2982.111816" xmlns="http://www.w3.org/2000/svg">
<line x1="0.000000" y1="0.000000" x2="1.000000" y2="0.000000" stroke-width="10" stroke="black" />
<line x1="1.000000" y1="0.000000" x2="2.000000" y2="0.000000" stroke-width="10" stroke="black" />
<line x1="2.000000" y1="0.000000" x2="3.000000" y2="0.000000" stroke-width="10" stroke="black" />
<line x1="3.000000" y1="0.000000" x2="4.000000" y2="0.000000" stroke-width="10" stroke="black" />
<line x1="4.000000" y1="0.000000" x2="5.000000" y2="0.000000" stroke-width="10" stroke="black" />
<line x1="5.000000" y1="0.000000" x2="6.000000" y2="0.000000" stroke-width="10" stroke="black" />
<line x1="6.000000" y1="0.000000" x2="7.000000" y2="0.000000" stroke-width="10" stroke="black" />
<line x1="7.000000" y1="0.000000" x2="8.000000" y2="0.000000" stroke-width="10" stroke="black" />
<line x1="8.000000" y1="0.000000" x2="9.000000" y2="0.000000" stroke-width="10" stroke="black" />
<line x1="9.000000" y1="0.000000" x2="10.000000" y2="0.000000" stroke-width="10" stroke="black" />
<line x1="10.000000" y1="0.000000" x2="11.000000" y2="0.000000" stroke-width="10" stroke="black" />
<line x1="11.000000" y1="0.000000" x2="12.000000" y2="0.000000" stroke-width="10" stroke="black" />
<line x1="12.000000" y1="0.000000" x2="13.000000" y2="0.000000" stroke-width="10" stroke="black" />
<line x1="13.000000" y1="0.000000" x2="14.000000" y2="0.000000" stroke-width="10" stroke="black" />
<line x1="14.000000" y1="0.000000" x2="15.000000" y2="0.000000" stroke-width="10" stroke="black" />
<line x1="15.000000" y1="0.000000" x2="16.000000" y2="0.000000" stroke-width="10" stroke="black" />
<line x1="16.000000" y1="0.000000" x2="106.107704" y2="43.365910" stroke-width="10" stroke="black" />
<line x1="106.107704" y1="43.365910" x2="196.215408" y2="86.731819" stroke-width="10" stroke="black" />
<line x1="196.215408" y1="86.731819" x2="286.323090" y2="130.097733" stroke-width="10" stroke="black" />
<line x1="286.323090" y1="130.097733" x2="376.430817" y2="173.463638" stroke-width="10" stroke="black" />
<line x1="376.430817" y1="173.463638" x2="466.538513" y2="216.829544" stroke-width="10" stroke="black" />
<line x1="466.538513" y1="216.829544" x2="556.646179" y2="260.195465" stroke-width="10" stroke="black" />
<line x1="556.646179" y1="260.195465" x2="646.753906" y2="303.561371" stroke-width="10" stroke="black" />
<line x1="646.753906" y1="303.561371" x2="736.861633" y2="346.927277" stroke-width="10" stroke="black" />
<line x1="736.861633" y1="346.927277" x2="799.249573" y2="425.079315" stroke-width="10" stroke="black" />
<line x1="799.249573" y1="425.079315" x2="861.637512" y2="503.231384" stroke-width="10" stroke="black" />
<line x1="861.637512" y1="503.231384" x2="924.025513" y2="581.383423" stroke-width="10" stroke="black" />
<line x1="924.025513" y1="581.383423" x2="986.413452" y2="659.535461" stroke-width="10" stroke="black" />
<line x1="986.413452" y1="659.535461" x2="1008.738464" y2="757.011597" stroke-width="10" stroke="black" />
<line x1="1008.738464" y1="757.011597" x2="1031.063477" y2="854.487732" stroke-width="10" stroke="black" />
<line x1="1031.063477" y1="854.487732" x2="1008.908630" y2="952.002625" stroke-width="10" stroke="black" />
<line x1="1008.908630" y1="952.002625" x2="986.753723" y2="1049.517578" stroke-width="10" stroke="black" />
<line x1="1031.063477" y1="854.487732" x2="1093.451416" y2="932.639771" stroke-width="10" stroke="black" />
<line x1="1093.451416" y1="932.639771" x2="1155.839355" y2="1010.791809" stroke-width="10" stroke="black" />
<line x1="1031.063477" y1="854.487732" x2="1053.388428" y2="951.963806" stroke-width="10" stroke="black" />
<line x1="1053.388428" y1="951.963806" x2="1075.713501" y2="1049.439941" stroke-width="10" stroke="black" />
<line x1="1075.713501" y1="1049.439941" x2="1098.038452" y2="1146.916016" stroke-width="10" stroke="black" />
<line x1="1098.038452" y1="1146.916016" x2="1120.363525" y2="1244.392212" stroke-width="10" stroke="black" />
<line x1="986.413452" y1="659.535461" x2="1076.521118" y2="702.901367" stroke-width="10" stroke="black" />
<line x1="1076.521118" y1="702.901367" x2="1166.628906" y2="746.267273" stroke-width="10" stroke="black" />
<line x1="1166.628906" y1="746.267273" x2="1229.016846" y2="824.419312" stroke-width="10" stroke="black" />
<line x1="1229.016846" y1="824.419312" x2="1291.404785" y2="902.571411" stroke-width="10" stroke="black" />
<line x1="1166.628906" y1="746.267273" x2="1266.628906" y2="746.267273" stroke-width="10" stroke="black" />
<line x1="1266.628906" y1="746.267273" x2="1366.628906" y2="746.267273" stroke-width="10" stroke="black" />
<line x1="1166.628906" y1="746.267273" x2="1256.736572" y2="789.633179" stroke-width="10" stroke="black" />
<line x1="1256.736572" y1="789.633179" x2="1346.844238" y2="832.999084" stroke-width="10" stroke="black" />
<line x1="1346.844238" y1="832.999084" x2="1436.951904" y2="876.365051" stroke-width="10" stroke="black" />
<line x1="1436.951904" y1="876.365051" x2="1527.059692" y2="919.730957" stroke-width="10" stroke="black" />
<line x1="986.413452" y1="659.535461" x2="1048.801392" y2="737.687500" stroke-width="10" stroke="black" />
<line x1="1048.801392" y1="737.687500" x2="1111.189331" y2="815.839600" stroke-width="10" stroke="black" />
<line x1="1111.189331" y1="815.839600" x2="1173.577271" y2="893.991638" stroke-width="10" stroke="black" />
<line x1="1173.577271" y1="893.991638" x2="1235.965332" y2="972.143677" stroke-width="10" stroke="black" />
<line x1="1235.965332" y1="972.143677" x2="1298.353271" y2="1050.295776" stroke-width="10" stroke="black" />
<line x1="1298.353271" y1="1050.295776" x2="1360.741211" y2="1128.447754" stroke-width="10" stroke="black" />
<line x1="1360.741211" y1="1128.447754" x2="1383.066162" y2="1225.923828" stroke-width="10" stroke="black" />
<line x1="1383.066162" y1="1225.923828" x2="1405.391235" y2="1323.400024" stroke-width="10" stroke="black" />
<line x1="1360.741211" y1="1128.447754" x2="1450.848877" y2="1171.813721" stroke-width="10" stroke="black" />
<line x1="1450.848877" y1="1171.813721" x2="1540.956543" y2="1215.179565" stroke-width="10" stroke="black" />
<line x1="1360.741211" y1="1128.447754" x2="1423.129150" y2="1206.599854" stroke-width="10" stroke="black" />
<line x1="1423.129150" y1="1206.599854" x2="1485.517090" y2="1284.751831" stroke-width="10" stroke="black" />
<line x1="1485.517090" y1="1284.751831" x2="1547.905029" y2="1362.903931" stroke-width="10" stroke="black" />
<line x1="1547.905029" y1="1362.903931" x2="1610.292969" y2="1441.055908" stroke-width="10" stroke="black" />
<line x1="736.861633" y1="346.927277" x2="836.861633" y2="346.927277" stroke-width="10" stroke="black" />
<line x1="836.861633" y1="346.927277" x2="936.861633" y2="346.927277" stroke-width="10" stroke="black" />
<line x1="936.861633" y1="346.927277" x2="1036.861572" y2="346.927277" stroke-width="10" stroke="black" />
<line x1="1036.861572" y1="346.927277" x2="1136.861572" y2="346.927277" stroke-width="10" stroke="black" />
<line x1="1136.861572" y1="346.927277" x2="1226.969360" y2="390.293182" stroke-width="10" stroke="black" />
<line x1="1226.969360" y1="390.293182" x2="1317.077026" y2="433.659088" stroke-width="10" stroke="black" />
<line x1="1317.077026" y1="433.659088" x2="1379.464966" y2="511.811157" stroke-width="10" stroke="black" />
<line x1="1379.464966" y1="511.811157" x2="1441.852905" y2="589.963196" stroke-width="10" stroke="black" />
<line x1="1317.077026" y1="433.659088" x2="1417.077026" y2="433.659088" stroke-width="10" stroke="black" />
<line x1="1417.077026" y1="433.659088" x2="1517.077026" y2="433.659088" stroke-width="10" stroke="black" />
<line x1="1317.077026" y1="433.659088" x2="1407.184692" y2="477.024994" stroke-width="10" stroke="black" />
<line x1="1407.184692" y1="477.024994" x2="1497.292358" y2="520.390930" stroke-width="10" stroke="black" />
<line x1="1497.292358" y1="520.390930" x2="1587.400146" y2="563.756836" stroke-width="10" stroke="black" />
<line x1="1587.400146" y1="563.756836" x2="1677.507813" y2="607.122742" stroke-width="10" stroke="black" />
<line x1="1136.861572" y1="346.927277" x2="1226.969360" y2="303.561371" stroke-width="10" stroke="black" />
<line x1="1226.969360" y1="303.561371" x2="1317.077026" y2="260.195465" stroke-width="10" stroke="black" />
<line x1="1317.077026" y1="260.195465" x2="1417.077026" y2="260.195465" stroke-width="10" stroke="black" />
<line x1="1417.077026" y1="260.195465" x2="1517.077026" y2="260.195465" stroke-width="10" stroke="black" />
<line x1="1317.077026" y1="260.195465" x2="1379.464966" y2="182.043411" stroke-width="10" stroke="black" />
<line x1="1379.464966" y1="182.043411" x2="1441.852905" y2="103.891357" stroke-width="10" stroke="black" />
<line x1="1317.077026" y1="260.195465" x2="1407.184692" y2="216.829544" stroke-width="10" stroke="black" />
<line x1="1407.184692" y1="216.829544" x2="1497.292358" y2="173.463638" stroke-width="10" stroke="black" />
<line x1="1497.292358" y1="173.463638" x2="1587.400146" y2="130.097733" stroke-width="10" stroke="black" />
<line x1="1587.400146" y1="130.097733" x2="1677.507813" y2="86.731819" stroke-width="10" stroke="black" />
<line x1="1136.861572" y1="346.927277" x2="1236.861572" y2="346.927277" stroke-width="10" stroke="black" />
<line x1="1236.861572" y1="346.927277" x2="1336.861572" y2="346.927277" stroke-width="10" stroke="black" />
<line x1="1336.861572" y1="346.927277" x2="1436.861572" y2="346.927277" stroke-width="10" stroke="black" />
<line x1="1436.861572" y1="346.927277" x2="1536.861572" y2="346.927277" stroke-width="10" stroke="black" />
<line x1="1536.861572" y1="346.927277" x2="1636.861572" y2="346.927277" stroke-width="10" stroke="black" />
<line x1="1636.861572" y1="346.927277" x2="1736.861572" y2="346.927277" stroke-width="10" stroke="black" />
<line x1="1736.861572" y1="346.927277" x2="1826.969360" y2="390.293182" stroke-width="10" stroke="black" />
<line x1="1826.969360" y1="390.293182" x2="1917.077026" y2="433.659088" stroke-width="10" stroke="black" />
<line x1="1736.861572" y1="346.927277" x2="1826.969360" y2="303.561371" stroke-width="10" stroke="black" />
<line x1="1826.969360" y1="303.561371" x2="1917.077026" y2="260.195465" stroke-width="10" stroke="black" />
<line x1="1736.861572" y1="346.927277" x2="1836.861572" y2="346.927277" stroke-width="10" stroke="black" />
<line x1="1836.861572" y1="346.927277" x2="1936.861572" y2="346.927277" stroke-width="10" stroke="black" />
<line x1="1936.861572" y1="346.927277" x2="2036.861572" y2="346.927277" stroke-width="10" stroke="black" />
<line x1="2036.861572" y1="346.927277" x2="2136.861572" y2="346.927277" stroke-width="10" stroke="black" />
<line x1="736.861633" y1="346.927277" x2="826.969299" y2="390.293182" stroke-width="10" stroke="black" />
<line x1="826.969299" y1="390.293182" x2="917.077026" y2="433.659088" stroke-width="10" stroke="black" />
<line x1="917.077026" y1="433.659088" x2="1007.184692" y2="477.024994" stroke-width="10" stroke="black" />
<line x1="1007.184692" y1="477.024994" x2="1097.292358" y2="520.390930" stroke-width="10" stroke="black" />
<line x1="1097.292358" y1="520.390930" x2="1187.400146" y2="563.756836" stroke-width="10" stroke="black" />
<line x1="1187.400146" y1="563.756836" x2="1277.507813" y2="607.122742" stroke-width="10" stroke="black" />
<line x1="1277.507813" y1="607.122742" x2="1367.615479" y2="650.488647" stroke-width="10" stroke="black" />
<line x1="1367.615479" y1="650.488647" x2="1457.723267" y2="693.854553" stroke-width="10" stroke="black" />
<line x1="1457.723267" y1="693.854553" x2="1547.830933" y2="737.220459" stroke-width="10" stroke="black" />
<line x1="1547.830933" y1="737.220459" x2="1637.938599" y2="780.586365" stroke-width="10" stroke="black" />
<line x1="1637.938599" y1="780.586365" x2="1728.046387" y2="823.952271" stroke-width="10" stroke="black" />
<line x1="1728.046387" y1="823.952271" x2="1818.154053" y2="867.318176" stroke-width="10" stroke="black" />
<line x1="1818.154053" y1="867.318176" x2="1880.541992" y2="945.470215" stroke-width="10" stroke="black" />
<line x1="1880.541992" y1="945.470215" x2="1942.929932" y2="1023.622314" stroke-width="10" stroke="black" />
<line x1="1942.929932" y1="1023.622314" x2="1965.255005" y2="1121.098389" stroke-width="10" stroke="black" />
<line x1="1965.255005" y1="1121.098389" x2="1987.579956" y2="1218.574585" stroke-width="10" stroke="black" />
<line x1="1942.929932" y1="1023.622314" x2="2033.037598" y2="1066.988159" stroke-width="10" stroke="black" />
<line x1="2033.037598" y1="1066.988159" x2="2123.145264" y2="1110.354126" stroke-width="10" stroke="black" />
<line x1="1942.929932" y1="1023.622314" x2="2005.317871" y2="1101.774292" stroke-width="10" stroke="black" />
<line x1="2005.317871" y1="1101.774292" x2="2067.705811" y2="1179.926392" stroke-width="10" stroke="black" />
<line x1="2067.705811" y1="1179.926392" x2="2130.093750" y2="1258.078491" stroke-width="10" stroke="black" />
<line x1="2130.093750" y1="1258.078491" x2="2192.481689" y2="1336.230469" stroke-width="10" stroke="black" />
<line x1="1818.154053" y1="867.318176" x2="1918.154053" y2="867.318176" stroke-width="10" stroke="black" />
<line x1="1918.154053" y1="867.318176" x2="2018.154053" y2="867.318176" stroke-width="10" stroke="black" />
<line x1="2018.154053" y1="867.318176" x2="2108.261719" y2="910.684082" stroke-width="10" stroke="black" />
<line x1="2108.261719" y1="910.684082" x2="2198.369385" y2="954.049988" stroke-width="10" stroke="black" />
<line x1="2018.154053" y1="867.318176" x2="2108.261719" y2="823.952271" stroke-width="10" stroke="black" />
<line x1="2108.261719" y1="823.952271" x2="2198.369385" y2="780.586365" stroke-width="10" stroke="black" />
<line x1="2018.154053" y1="867.318176" x2="2118.154053" y2="867.318176" stroke-width="10" stroke="black" />
<line x1="2118.154053" y1="867.318176" x2="2218.154053" y2="867.318176" stroke-width="10" stroke="black" />
<line x1="2218.154053" y1="867.318176" x2="2318.154053" y2="867.318176" stroke-width="10" stroke="black" />
<line x1="2318.154053" y1="867.318176" x2="2418.154053" y2="867.318176" stroke-width="10" stroke="black" />
<line x1="1818.154053" y1="867.318176" x2="1908.261719" y2="910.684082" stroke-width="10" stroke="black" />
<line x1="1908.261719" y1="910.684082" x2="1998.369385" y2="954.049988" stroke-width="10" stroke="black" />
<line x1="1998.369385" y1="954.049988" x2="2088.477051" y2="997.415894" stroke-width="10" stroke="black" />
<line x1="2088.477051" y1="997.415894" x2="2178.584717" y2="1040.781860" stroke-width="10" stroke="black" />
<line x1="2178.584717" y1="1040.781860" x2="2268.692627" y2="1084.147705" stroke-width="10" stroke="black" />
<line x1="2268.692627" y1="1084.147705" x2="2358.800293" y2="1127.513672" stroke-width="10" stroke="black" />
<line x1="2358.800293" y1="1127.513672" x2="2421.188232" y2="1205.665649" stroke-width="10" stroke="black" />
<line x1="2421.188232" y1="1205.665649" x2="2483.576172" y2="1283.817749" stroke-width="10" stroke="black" />
<line x1="2358.800293" y1="1127.513672" x2="2458.800293" y2="1127.513672" stroke-width="10" stroke="black" />
<line x1="2458.800293" y1="1127.513672" x2="2558.800293" y2="1127.513672" stroke-width="10" stroke="black" />
<line x1="2358.800293" y1="1127.513672" x2="2448.907959" y2="1170.879517" stroke-width="10" stroke="black" />
<line x1="2448.907959" y1="1170.879517" x2="2539.015625" y2="1214.245483" stroke-width="10" stroke="black" />
<line x1="2539.015625" y1="1214.245483" x2="2629.123291" y2="1257.611328" stroke-width="10" stroke="black" />
<line x1="2629.123291" y1="1257.611328" x2="2719.230957" y2="1300.977295" stroke-width="10" stroke="black" />
<line x1="16.000000" y1="0.000000" x2="106.107704" y2="-43.365910" stroke-width="10" stroke="black" />
<line x1="106.107704" y1="-43.365910" x2="196.215408" y2="-86.731819" stroke-width="10" stroke="black" />
<line x1="196.215408" y1="-86.731819" x2="286.323090" y2="-130.097733" stroke-width="10" stroke="black" />
<line x1="286.323090" y1="-130.097733" x2="376.430817" y2="-173.463638" stroke-width="10" stroke="black" />
<line x1="376.430817" y1="-173.463638" x2="466.538513" y2="-216.829544" stroke-width="10" stroke="black" />
<line x1="466.538513" y1="-216.829544" x2="556.646179" y2="-260.195465" stroke-width="10" stroke="black" />
<line x1="556.646179" y1="-260.195465" x2="646.753906" y2="-303.561371" stroke-width="10" stroke="black" />
<line x1="646.753906" y1="-303.561371" x2="736.861633" y2="-346.927277" stroke-width="10" stroke="black" />
<line x1="736.861633" y1="-346.927277" x2="836.861633" y2="-346.927277" stroke-width="10" stroke="black" />
<line x1="836.861633" y1="-346.927277" x2="936.861633" y2="-346.927277" stroke-width="10" stroke="black" />
<line x1="936.861633" y1="-346.927277" x2="1036.861572" y2="-346.927277" stroke-width="10" stroke="black" />
<line x1="1036.861572" y1="-346.927277" x2="1136.861572" y2="-346.927277" stroke-width="10" stroke="black" />
<line x1="1136.861572" y1="-346.927277" x2="1226.969360" y2="-303.561371" stroke-width="10" stroke="black" />
<line x1="1226.969360" y1="-303.561371" x2="1317.077026" y2="-260.195465" stroke-width="10" stroke="black" />
<line x1="1317.077026" y1="-260.195465" x2="1379.464966" y2="-182.043411" stroke-width="10" stroke="black" />
<line x1="1379.464966" y1="-182.043411" x2="1441.852905" y2="-103.891357" stroke-width="10" stroke="black" />
<line x1="1317.077026" y1="-260.195465" x2="1417.077026" y2="-260.195465" stroke-width="10" stroke="black" />
<line x1="1417.077026" y1="-260.195465" x2="1517.077026" y2="-260.195465" stroke-width="10" stroke="black" />
<line x1="1317.077026" y1="-260.195465" x2="1407.184692" y2="-216.829544" stroke-width="10" stroke="black" />
<line x1="1407.184692" y1="-216.829544" x2="1497.292358" y2="-173.463638" stroke-width="10" stroke="black" />
<line x1="1497.292358" y1="-173.463638" x2="1587.400146" y2="-130.097733" stroke-width="10" stroke="black" />
<line x1="1587.400146" y1="-130.097733" x2="1677.507813" y2="-86.731819" stroke-width="10" stroke="black" />
<line x1="1136.861572" y1="-346.927277" x2="1226.969360" y2="-390.293182" stroke-width="10" stroke="black" />
<line x1="1226.969360" y1="-390.293182" x2="1317.077026" y2="-433.659088" stroke-width="10" stroke="black" />
<line x1="1317.077026" y1="-433.659088" x2="1417.077026" y2="-433.659088" stroke-width="10" stroke="black" />
<line x1="1417.077026" y1="-433.659088" x2="1517.077026" y2="-433.659088" stroke-width="10" stroke="black" />
<line x1="1317.077026" y1="-433.659088" x2="1379.464966" y2="-511.811157" stroke-width="10" stroke="black" />
<line x1="1379.464966" y1="-511.811157" x2="1441.852905" y2="-589.963196" stroke-width="10" stroke="black" />
<line x1="1317.077026" y1="-433.659088" x2="1407.184692" y2="-477.024994" stroke-width="10" stroke="black" />
<line x1="1407.184692" y1="-477.024994" x2="1497.292358" y2="-520.390930" stroke-width="10" stroke="black" />
<line x1="1497.292358" y1="-520.390930" x2="1587.400146" y2="-563.756836" stroke-width="10" stroke="black" />
<line x1="1587.400146" y1="-563.756836" x2="1677.507813" y2="-607.122742" stroke-width="10" stroke="black" />
<line x1="1136.861572" y1="-346.927277" x2="1236.861572" y2="-346.927277" stroke-width="10" stroke="black" />
<line x1="1236.861572" y1="-346.927277" x2="1336.861572" y2="-346.927277" stroke-width="10" stroke="black" />
<line x1="1336.861572" y1="-346.927277" x2="1436.861572" y2="-346.927277" stroke-width="10" stroke="black" />
<line x1="1436.861572" y1="-346.927277" x2="1536.861572" y2="-346.927277" stroke-width="10" stroke="black" />
<line x1="1536.861572" y1="-346.927277" x2="1636.861572" y2="-346.927277" stroke-width="10" stroke="black" />
<line x1="1636.861572" y1="-346.927277" x2="1736.861572" y2="-346.927277" stroke-width="10" stroke="black" />
<line x1="1736.861572" y1="-346.927277" x2="1826.969360" y2="-303.561371" stroke-width="10" stroke="black" />
<line x1="1826.969360" y1="-303.561371" x2="1917.077026" y2="-260.195465" stroke-width="10" stroke="black" />
<line x1="1736.861572" y1="-346.927277" x2="1826.969360" y2="-390.293182" stroke-width="10" stroke="black" />
<line x1="1826.969360" y1="-390.293182" x2="1917.077026" y2="-433.659088" stroke-width="10" stroke="black" />
<line x1="1736.861572" y1="-346.927277" x2="1836.861572" y2="-346.927277" stroke-width="10" stroke="black" />
<line x1="1836.861572" y1="-346.927277" x2="1936.861572" y2="-346.927277" stroke-width="10" stroke="black" />
<line x1="1936.861572" y1="-346.927277" x2="2036.861572" y2="-346.927277" stroke-width="10" stroke="black" />
<line x1="2036.861572" y1="-346.927277" x2="2136.861572" y2="-346.927277" stroke-width="10" stroke="black" />
<line x1="736.861633" y1="-346.927277" x2="799.249573" y2="-425.079315" stroke-width="10" stroke="black" />
<line x1="799.249573" y1="-425.079315" x2="861.637512" y2="-503.231384" stroke-width="10" stroke="black" />
<line x1="861.637512" y1="-503.231384" x2="924.025513" y2="-581.383423" stroke-width="10" stroke="black" />
<line x1="924.025513" y1="-581.383423" x2="986.413452" y2="-659.535461" stroke-width="10" stroke="black" />
<line x1="986.413452" y1="-659.535461" x2="1076.521118" y2="-702.901367" stroke-width="10" stroke="black" />
<line x1="1076.521118" y1="-702.901367" x2="1166.628906" y2="-746.267273" stroke-width="10" stroke="black" />
<line x1="1166.628906" y1="-746.267273" x2="1266.628906" y2="-746.267273" stroke-width="10" stroke="black" />
<line x1="1266.628906" y1="-746.267273" x2="1366.628906" y2="-746.267273" stroke-width="10" stroke="black" />
<line x1="1166.628906" y1="-746.267273" x2="1229.016846" y2="-824.419312" stroke-width="10" stroke="black" />
<line x1="1229.016846" y1="-824.419312" x2="1291.404785" y2="-902.571411" stroke-width="10" stroke="black" />
<line x1="1166.628906" y1="-746.267273" x2="1256.736572" y2="-789.633179" stroke-width="10" stroke="black" />
<line x1="1256.736572" y1="-789.633179" x2="1346.844238" y2="-832.999084" stroke-width="10" stroke="black" />
<line x1="1346.844238" y1="-832.999084" x2="1436.951904" y2="-876.365051" stroke-width="10" stroke="black" />
<line x1="1436.951904" y1="-876.365051" x2="1527.059692" y2="-919.730957" stroke-width="10" stroke="black" />
<line x1="986.413452" y1="-659.535461" x2="1008.738464" y2="-757.011597" stroke-width="10" stroke="black" />
<line x1="1008.738464" y1="-757.011597" x2="1031.063477" y2="-854.487732" stroke-width="10" stroke="black" />
<line x1="1031.063477" y1="-854.487732" x2="1093.451416" y2="-932.639771" stroke-width="10" stroke="black" />
<line x1="1093.451416" y1="-932.639771" x2="1155.839355" y2="-1010.791809" stroke-width="10" stroke="black" />
<line x1="1031.063477" y1="-854.487732" x2="1008.908630" y2="-952.002625" stroke-width="10" stroke="black" />
<line x1="1008.908630" y1="-952.002625" x2="986.753723" y2="-1049.517578" stroke-width="10" stroke="black" />
<line x1="1031.063477" y1="-854.487732" x2="1053.388428" y2="-951.963806" stroke-width="10" stroke="black" />
<line x1="1053.388428" y1="-951.963806" x2="1075.713501" y2="-1049.439941" stroke-width="10" stroke="black" />
<line x1="1075.713501" y1="-1049.439941" x2="1098.038452" y2="-1146.916016" stroke-width="10" stroke="black" />
<line x1="1098.038452" y1="-1146.916016" x2="1120.363525" y2="-1244.392212" stroke-width="10" stroke="black" />
<line x1="986.413452" y1="-659.535461" x2="1048.801392" y2="-737.687500" stroke-width="10" stroke="black" />
<line x1="1048.801392" y1="-737.687500" x2="1111.189331" y2="-815.839600" stroke-width="10" stroke="black" />
<line x1="1111.189331" y1="-815.839600" x2="1173.577271" y2="-893.991638" stroke-width="10" stroke="black" />
<line x1="1173.577271" y1="-893.991638" x2="1235.965332" y2="-972.143677" stroke-width="10" stroke="black" />
<line x1="1235.965332" y1="-972.143677" x2="1298.353271" y2="-1050.295776" stroke-width="10" stroke="black" />
<line x1="1298.353271" y1="-1050.295776" x2="1360.741211" y2="-1128.447754" stroke-width="10" stroke="black" />
<line x1="1360.741211" y1="-1128.447754" x2="1450.848877" y2="-1171.813721" stroke-width="10" stroke="black" />
<line x1="1450.848877" y1="-1171.813721" x2="1540.956543" y2="-1215.179565" stroke-width="10" stroke="black" />
<line x1="1360.741211" y1="-1128.447754" x2="1383.066162" y2="-1225.923828" stroke-width="10" stroke="black" />
<line x1="1383.066162" y1="-1225.923828" x2="1405.391235" y2="-1323.400024" stroke-width="10" stroke="black" />
<line x1="1360.741211" y1="-1128.447754" x2="1423.129150" y2="-1206.599854" stroke-width="10" stroke="black" />
<line x1="1423.129150" y1="-1206.599854" x2="1485.517090" y2="-1284.751831" stroke-width="10" stroke="black" />
<line x1="1485.517090" y1="-1284.751831" x2="1547.905029" y2="-1362.903931" stroke-width="10" stroke="black" />
<line x1="1547.905029" y1="-1362.903931" x2="1610.292969" y2="-1441.055908" stroke-width="10" stroke="black" />
<line x1="736.861633" y1="-346.927277" x2="826.969299" y2="-390.293182" stroke-width="10" stroke="black" />
<line x1="826.969299" y1="-390.293182" x2="917.077026" y2="-433.659088" stroke-width="10" stroke="black" />
<line x1="917.077026" y1="-433.659088" x2="1007.184692" y2="-477.024994" stroke-width="10" stroke="black" />
<line x1="1007.184692" y1="-477.024994" x2="1097.292358" y2="-520.390930" stroke-width="10" stroke="black" />
<line x1="1097.292358" y1="-520.390930" x2="1187.400146" y2="-563.756836" stroke-width="10" stroke="black" />
<line x1="1187.400146" y1="-563.756836" x2="1277.507813" y2="-607.122742" stroke-width="10" stroke="black" />
<line x1="1277.507813" y1="-607.122742" x2="1367.615479" y2="-650.488647" stroke-width="10" stroke="black" />
<line x1="1367.615479" y1="-650.488647" x2="1457.723267" y2="-693.854553" stroke-width="10" stroke="black" />
<line x1="1457.723267" y1="-693.854553" x2="1547.830933" y2="-737.220459" stroke-width="10" stroke="black" />
<line x1="1547.830933" y1="-737.220459" x2="1637.938599" y2="-780.586365" stroke-width="10" stroke="black" />
<line x1="1637.938599" y1="-780.586365" x2="1728.046387" y2="-823.952271" stroke-width="10" stroke="black" />
<line x1="1728.046387" y1="-823.952271" x2="1818.154053" y2="-867.318176" stroke-width="10" stroke="black" />
<line x1="1818.154053" y1="-867.318176" x2="1918.154053" y2="-867.318176" stroke-width="10" stroke="black" />
<line x1="1918.154053" y1="-867.318176" x2="2018.154053" y2="-867.318176" stroke-width="10" stroke="black" />
<line x1="2018.154053" y1="-867.318176" x2="2108.261719" y2="-823.952271" stroke-width="10" stroke="black" />
<line x1="2108.261719" y1="-823.952271" x2="2198.369385" y2="-780.586365" stroke-width="10" stroke="black" />
<line x1="2018.154053" y1="-867.318176" x2="2108.261719" y2="-910.684082" stroke-width="10" stroke="black" />
<line x1="2108.261719" y1="-910.684082" x2="2198.369385" y2="-954.049988" stroke-width="10" stroke="black" />
<line x1="2018.154053" y1="-867.318176" x2="2118.154053" y2="-867.318176" stroke-width="10" stroke="black" />
<line x1="2118.154053" y1="-867.318176" x2="2218.154053" y2="-867.318176" stroke-width="10" stroke="black" />
<line x1="2218.154053" y1="-867.318176" x2="2318.154053" y2="-867.318176" stroke-width="10" stroke="black" />
<line x1="2318.154053" y1="-867.318176" x2="2418.154053" y2="-867.318176" stroke-width="10" stroke="black" />
<line x1="1818.154053" y1="-867.318176" x2="1880.541992" y2="-945.470215" stroke-width="10" stroke="black" />
<line x1="1880.541992" y1="-945.470215" x2="1942.929932" y2="-1023.622314" stroke-width="10" stroke="black" />
<line x1="1942.929932" y1="-1023.622314" x2="2033.037598" y2="-1066.988159" stroke-width="10" stroke="black" />
<line x1="2033.037598" y1="-1066.988159" x2="2123.145264" y2="-1110.354126" stroke-width="10" stroke="black" />
<line x1="1942.929932" y1="-1023.622314" x2="1965.255005" y2="-1121.098389" stroke-width="10" stroke="black" />
<line x1="1965.255005" y1="-1121.098389" x2="1987.579956" y2="-1218.574585" stroke-width="10" stroke="black" />
<line x1="1942.929932" y1="-1023.622314" x2="2005.317871" y2="-1101.774292" stroke-width="10" stroke="black" />
<line x1="2005.317871" y1="-1101.774292" x2="2067.705811" y2="-1179.926392" stroke-width="10" stroke="black" />
<line x1="2067.705811" y1="-1179.926392" x2="2130.093750" y2="-1258.078491" stroke-width="10" stroke="black" />
<line x1="2130.093750" y1="-1258.078491" x2="2192.481689" y2="-1336.230469" stroke-width="10" stroke="black" />
<line x1="1818.154053" y1="-867.318176" x2="1908.261719" y2="-910.684082" stroke-width="10" stroke="black" />
<line x1="1908.261719" y1="-910.684082" x2="1998.369385" y2="-954.049988" stroke-width="10" stroke="black" />
<line x1="1998.369385" y1="-954.049988" x2="2088.477051" y2="-997.415894" stroke-width="10" stroke="black" />
<line x1="2088.477051" y1="-997.415894" x2="2178.584717" y2="-1040.781860" stroke-width="10" stroke="black" />
<line x1="2178.584717" y1="-1040.781860" x2="2268.692627" y2="-1084.147705" stroke-width="10" stroke="black" />
<line x1="2268.692627" y1="-1084.147705" x2="2358.800293" y2="-1127.513672" stroke-width="10" stroke="black" />
<line x1="2358.800293" y1="-1127.513672" x2="2458.800293" y2="-1127.513672" stroke-width="10" stroke="black" />
<line x1="2458.800293" y1="-1127.513672" x2="2558.800293" y2="-1127.513672" stroke-width="10" stroke="black" />
<line x1="2358.800293" y1="-1127.513672" x2="2421.188232" y2="-1205.665649" stroke-width="10" stroke="black" />
<line x1="2421.188232" y1="-1205.665649" x2="2483.576172" y2="-1283.817749" stroke-width="10" stroke="black" />
<line x1="2358.800293" y1="-1127.513672" x2="2448.907959" y2="-1170.879517" stroke-width="10" stroke="black" />
<line x1="2448.907959" y1="-1170.879517" x2="2539.015625" y2="-1214.245483" stroke-width="10" stroke="black" />
<line x1="2539.015625" y1="-1214.245483" x2="2629.123291" y2="-1257.611328" stroke-width="10" stroke="black" />
<line x1="2629.123291" y1="-1257.611328" x2="2719.230957" y2="-1300.977295" stroke-width="10" stroke="black" />
<line x1="16.000000" y1="0.000000" x2="17.000000" y2="0.000000" stroke-width="10" stroke="black" />
<line x1="17.000000" y1="0.000000" x2="18.000000" y2="0.000000" stroke-width="10" stroke="black" />
<line x1="18.000000" y1="0.000000" x2="19.000000" y2="0.000000" stroke-width="10" stroke="black" />
<line x1="19.000000" y1="0.000000" x2="20.000000" y2="0.000000" stroke-width="10" stroke="black" />
<line x1="20.000000" y1="0.000000" x2="21.000000" y2="0.000000" stroke-width="10" stroke="black" />
<line x1="21.000000" y1="0.000000" x2="22.000000" y2="0.000000" stroke-width="10" stroke="black" />
<line x1="22.000000" y1="0.000000" x2="23.000000" y2="0.000000" stroke-width="10" stroke="black" />
<line x1="23.000000" y1="0.000000" x2="24.000000" y2="0.000000" stroke-width="10" stroke="black" />
<line x1="24.000000" y1="0.000000" x2="25.000000" y2="0.000000" stroke-width="10" stroke="black" />
<line x1="25.000000" y1="0.000000" x2="26.000000" y2="0.000000" stroke-width="10" stroke="black" />
<line x1="26.000000" y1="0.000000" x2="27.000000" y2="0.000000" stroke-width="10" stroke="black" />
<line x1="27.000000" y1="0.000000" x2="28.000000" y2="0.000000" stroke-width="10" stroke="black" />
<line x1="28.000000" y1="0.000000" x2="29.000000" y2="0.000000" stroke-width="10" stroke="black" />
<line x1="29.000000" y1="0.000000" x2="30.000000" y2="0.000000" stroke-width="10" stroke="black" />
<line x1="30.000000" y1="0.000000" x2="31.000000" y2="0.000000" stroke-width="10" stroke="black" />
<line x1="31.000000" y1="0.000000" x2="32.000000" y2="0.000000" stroke-width="10" stroke="black" />
<line x1="32.000000" y1="0.000000" x2="33.000000" y2="0.000000" stroke-width="10" stroke="black" />
<line x1="33.000000" y1="0.000000" x2="34.000000" y2="0.000000" stroke-width="10" stroke="black" />
<line x1="34.000000" y1="0.000000" x2="35.000000" y2="0.000000" stroke-width="10" stroke="black" />
<line x1="35.000000" y1="0.000000" x2="36.000000" y2="0.000000" stroke-width="10" stroke="black" />
<line x1="36.000000" y1="0.000000" x2="37.000000" y2="0.000000" stroke-width="10" stroke="black" />
<line x1="37.000000" y1="0.000000" x2="38.000000" y2="0.000000" stroke-width="10" stroke="black" />
<line x1="38.000000" y1="0.000000" x2="39.000000" y2="0.000000" stroke-width="10" stroke="black" />
<line x1="39.000000" y1="0.000000" x2="40.000000" y2="0.000000" stroke-width="10" stroke="black" />
<line x1="40.000000" y1="0.000000" x2="130.107697" y2="43.365910" stroke-width="10" stroke="black" />
<line x1="130.107697" y1="43.365910" x2="220.215408" y2="86.731819" stroke-width="10" stroke="black" />
<line x1="220.215408" y1="86.731819" x2="310.323090" y2="130.097733" stroke-width="10" stroke="black" />
<line x1="310.323090" y1="130.097733" x2="400.430817" y2="173.463638" stroke-width="10" stroke="black" />
<line x1="400.430817" y1="173.463638" x2="462.818756" y2="251.615692" stroke-width="10" stroke="black" />
<line x1="462.818756" y1="251.615692" x2="525.206726" y2="329.767731" stroke-width="10" stroke="black" />
<line x1="525.206726" y1="329.767731" x2="547.531738" y2="427.243866" stroke-width="10" stroke="black" />
<line x1="547.531738" y1="427.243866" x2="569.856750" y2="524.719971" stroke-width="10" stroke="black" />
<line x1="525.206726" y1="329.767731" x2="615.314453" y2="373.133636" stroke-width="10" stroke="black" />
<line x1="615.314453" y1="373.133636" x2="705.422119" y2="416.499542" stroke-width="10" stroke="black" />
<line x1="525.206726" y1="329.767731" x2="587.594666" y2="407.919800" stroke-width="10" stroke="black" />
<line x1="587.594666" y1="407.919800" x2="649.982666" y2="486.071838" stroke-width="10" stroke="black" />
<line x1="649.982666" y1="486.071838" x2="712.370605" y2="564.223877" stroke-width="10" stroke="black" />
<line x1="712.370605" y1="564.223877" x2="774.758545" y2="642.375916" stroke-width="10" stroke="black" />
<line x1="400.430817" y1="173.463638" x2="500.430817" y2="173.463638" stroke-width="10" stroke="black" />
<line x1="500.430817" y1="173.463638" x2="600.430786" y2="173.463638" stroke-width="10" stroke="black" />
<line x1="600.430786" y1="173.463638" x2="690.538513" y2="216.829544" stroke-width="10" stroke="black" />
<line x1="690.538513" y1="216.829544" x2="780.646179" y2="260.195465" stroke-width="10" stroke="black" />
<line x1="600.430786" y1="173.463638" x2="690.538513" y2="130.097733" stroke-width="10" stroke="black" />
<line x1="690.538513" y1="130.097733" x2="780.646179" y2="86.731819" stroke-width="10" stroke="black" />
<line x1="600.430786" y1="173.463638" x2="700.430786" y2="173.463638" stroke-width="10" stroke="black" />
<line x1="700.430786" y1="173.463638" x2="800.430786" y2="173.463638" stroke-width="10" stroke="black" />
<line x1="800.430786" y1="173.463638" x2="900.430786" y2="173.463638" stroke-width="10" stroke="black" />
<line x1="900.430786" y1="173.463638" x2="1000.430786" y2="173.463638" stroke-width="10" stroke="black" />
<line x1="400.430817" y1="173.463638" x2="490.538513" y2="216.829544" stroke-width="10" stroke="black" />
<line x1="490.538513" y1="216.829544" x2="580.646179" y2="260.195465" stroke-width="10" stroke="black" />
<line x1="580.646179" y1="260.195465" x2="670.753906" y2="303.561371" stroke-width="10" stroke="black" />
<line x1="670.753906" y1="303.561371" x2="760.861633" y2="346.927277" stroke-width="10" stroke="black" />
<line x1="760.861633" y1="346.927277" x2="850.969299" y2="390.293182" stroke-width="10" stroke="black" />
<line x1="850.969299" y1="390.293182" x2="941.077026" y2="433.659088" stroke-width="10" stroke="black" />
<line x1="941.077026" y1="433.659088" x2="1003.464966" y2="511.811157" stroke-width="10" stroke="black" />
<line x1="1003.464966" y1="511.811157" x2="1065.852905" y2="589.963196" stroke-width="10" stroke="black" />
<line x1="941.077026" y1="433.659088" x2="1041.077026" y2="433.659088" stroke-width="10" stroke="black" />
<line x1="1041.077026" y1="433.659088" x2="1141.077026" y2="433.659088" stroke-width="10" stroke="black" />
<line x1="941.077026" y1="433.659088" x2="1031.184692" y2="477.024994" stroke-width="10" stroke="black" />
<line x1="1031.184692" y1="477.024994" x2="1121.292358" y2="520.390930" stroke-width="10" stroke="black" />
<line x1="1121.292358" y1="520.390930" x2="1211.400146" y2="563.756836" stroke-width="10" stroke="black" />
<line x1="1211.400146" y1="563.756836" x2="1301.507813" y2="607.122742" stroke-width="10" stroke="black" />
<line x1="40.000000" y1="0.000000" x2="130.107697" y2="-43.365910" stroke-width="10" stroke="black" />
<line x1="130.107697" y1="-43.365910" x2="220.215408" y2="-86.731819" stroke-width="10" stroke="black" />
<line x1="220.215408" y1="-86.731819" x2="310.323090" y2="-130.097733" stroke-width="10" stroke="black" />
<line x1="310.323090" y1="-130.097733" x2="400.430817" y2="-173.463638" stroke-width="10" stroke="black" />
<line x1="400.430817" y1="-173.463638" x2="500.430817" y2="-173.463638" stroke-width="10" stroke="black" />
<line x1="500.430817" y1="-173.463638" x2="600.430786" y2="-173.463638" stroke-width="10" stroke="black" />
<line x1="600.430786" y1="-173.463638" x2="690.538513" y2="-130.097733" stroke-width="10" stroke="black" />
<line x1="690.538513" y1="-130.097733" x2="780.646179" y2="-86.731819" stroke-width="10" stroke="black" />
<line x1="600.430786" y1="-173.463638" x2="690.538513" y2="-216.829544" stroke-width="10" stroke="black" />
<line x1="690.538513" y1="-216.829544" x2="780.646179" y2="-260.195465" stroke-width="10" stroke="black" />
<line x1="600.430786" y1="-173.463638" x2="700.430786" y2="-173.463638" stroke-width="10" stroke="black" />
<line x1="700.430786" y1="-173.463638" x2="800.430786" y2="-173.463638" stroke-width="10" stroke="black" />
<line x1="800.430786" y1="-173.463638" x2="900.430786" y2="-173.463638" stroke-width="10" stroke="black" />
<line x1="900.430786" y1="-173.463638" x2="1000.430786" y2="-173.463638" stroke-width="10" stroke="black" />
<line x1="400.430817" y1="-173.463638" x2="462.818756" y2="-251.615692" stroke-width="10" stroke="black" />
<line x1="462.818756" y1="-251.615692" x2="525.206726" y2="-329.767731" stroke-width="10" stroke="black" />
<line x1="525.206726" y1="-329.767731" x2="615.314453" y2="-373.133636" stroke-width="10" stroke="black" />
<line x1="615.314453" y1="-373.133636" x2="705.422119" y2="-416.499542" stroke-width="10" stroke="black" />
<line x1="525.206726" y1="-329.767731" x2="547.531738" y2="-427.243866" stroke-width="10" stroke="black" />
<line x1="547.531738" y1="-427.243866" x2="569.856750" y2="-524.719971" stroke-width="10" stroke="black" />
<line x1="525.206726" y1="-329.767731" x2="587.594666" y2="-407.919800" stroke-width="10" stroke="black" />
<line x1="587.594666" y1="-407.919800" x2="649.982666" y2="-486.071838" stroke-width="10" stroke="black" />
<line x1="649.982666" y1="-486.071838" x2="712.370605" y2="-564.223877" stroke-width="10" stroke="black" />
<line x1="712.370605" y1="-564.223877" x2="774.758545" y2="-642.375916" stroke-width="10" stroke="black" />
<line x1="400.430817" y1="-173.463638" x2="490.538513" y2="-216.829544" stroke-width="10" stroke="black" />
<line x1="490.538513" y1="-216.829544" x2="580.646179" y2="-260.195465" stroke-width="10" stroke="black" />
<line x1="580.646179" y1="-260.195465" x2="670.753906" y2="-303.561371" stroke-width="10" stroke="black" />
<line x1="670.753906" y1="-303.561371" x2="760.861633" y2="-346.927277" stroke-width="10" stroke="black" />
<line x1="760.861633" y1="-346.927277" x2="850.969299" y2="-390.293182" stroke-width="10" stroke="black" />
<line x1="850.969299" y1="-390.293182" x2="941.077026" y2="-433.659088" stroke-width="10" stroke="black" />
<line x1="941.077026" y1="-433.659088" x2="1041.077026" y2="-433.659088" stroke-width="10" stroke="black" />
<line x1="1041.077026" y1="-433.659088" x2="1141.077026" y2="-433.659088" stroke-width="10" stroke="black" />
<line x1="941.077026" y1="-433.659088" x2="1003.464966" y2="-511.811157" stroke-width="10" stroke="black" />
<line x1="1003.464966" y1="-511.811157" x2="1065.852905" y2="-589.963196" stroke-width="10" stroke="black" />
<line x1="941.077026" y1="-433.659088" x2="1031.184692" y2="-477.024994" stroke-width="10" stroke="black" />
<line x1="1031.184692" y1="-477.024994" x2="1121.292358" y2="-520.390930" stroke-width="10" stroke="black" />
<line x1="1121.292358" y1="-520.390930" x2="1211.400146" y2="-563.756836" stroke-width="10" stroke="black" />
<line x1="1211.400146" y1="-563.756836" x2="1301.507813" y2="-607.122742" stroke-width="10" stroke="black" />
<line x1="40.000000" y1="0.000000" x2="41.000000" y2="0.000000" stroke-width="10" stroke="black" />
<line x1="41.000000" y1="0.000000" x2="42.000000" y2="0.000000" stroke-width="10" stroke="black" />
<line x1="42.000000" y1="0.000000" x2="43.000000" y2="0.000000" stroke-width="10" stroke="black" />
<line x1="43.000000" y1="0.000000" x2="44.000000" y2="0.000000" stroke-width="10" stroke="black" />
<line x1="44.000000" y1="0.000000" x2="45.000000" y2="0.000000" stroke-width="10" stroke="black" />
<line x1="45.000000" y1="0.000000" x2="46.000000" y2="0.000000" stroke-width="10" stroke="black" />
<line x1="46.000000" y1="0.000000" x2="47.000000" y2="0.000000" stroke-width="10" stroke="black" />
<line x1="47.000000" y1="0.000000" x2="48.000000" y2="0.000000" stroke-width="10" stroke="black" />
<line x1="48.000000" y1="0.000000" x2="49.000000" y2="0.000000" stroke-width="10" stroke="black" />
<line x1="49.000000" y1="0.000000" x2="50.000000" y2="0.000000" stroke-width="10" stroke="black" />
<line x1="50.000000" y1="0.000000" x2="51.000000" y2="0.000000" stroke-width="10" stroke="black" />
<line x1="51.000000" y1="0.000000" x2="52.000000" y2="0.000000" stroke-width="10" stroke="black" />
<line x1="52.000000" y1="0.000000" x2="142.107697" y2="43.365910" stroke-width="10" stroke="black" />
<line x1="142.107697" y1="43.365910" x2="232.215408" y2="86.731819" stroke-width="10" stroke="black" />
<line x1="232.215408" y1="86.731819" x2="294.603363" y2="164.883865" stroke-width="10" stroke="black" />
<line x1="294.603363" y1="164.883865" x2="356.991333" y2="243.035919" stroke-width="10" stroke="black" />
<line x1="232.215408" y1="86.731819" x2="332.215393" y2="86.731819" stroke-width="10" stroke="black" />
<line x1="332.215393" y1="86.731819" x2="432.215393" y2="86.731819" stroke-width="10" stroke="black" />
<line x1="232.215408" y1="86.731819" x2="322.323090" y2="130.097733" stroke-width="10" stroke="black" />
<line x1="322.323090" y1="130.097733" x2="412.430817" y2="173.463638" stroke-width="10" stroke="black" />
<line x1="412.430817" y1="173.463638" x2="502.538513" y2="216.829544" stroke-width="10" stroke="black" />
<line x1="502.538513" y1="216.829544" x2="592.646179" y2="260.195465" stroke-width="10" stroke="black" />
<line x1="52.000000" y1="0.000000" x2="142.107697" y2="-43.365910" stroke-width="10" stroke="black" />
<line x1="142.107697" y1="-43.365910" x2="232.215408" y2="-86.731819" stroke-width="10" stroke="black" />
<line x1="232.215408" y1="-86.731819" x2="332.215393" y2="-86.731819" stroke-width="10" stroke="black" />
<line x1="332.215393" y1="-86.731819" x2="432.215393" y2="-86.731819" stroke-width="10" stroke="black" />
<line x1="232.215408" y1="-86.731819" x2="294.603363" y2="-164.883865" stroke-width="10" stroke="black" />
<line x1="294.603363" y1="-164.883865" x2="356.991333" y2="-243.035919" stroke-width="10" stroke="black" />
<line x1="232.215408" y1="-86.731819" x2="322.323090" y2="-130.097733" stroke-width="10" stroke="black" />
<line x1="322.323090" y1="-130.097733" x2="412.430817" y2="-173.463638" stroke-width="10" stroke="black" />
<line x1="412.430817" y1="-173.463638" x2="502.538513" y2="-216.829544" stroke-width="10" stroke="black" />
<line x1="502.538513" y1="-216.829544" x2="592.646179" y2="-260.195465" stroke-width="10" stroke="black" />
<line x1="52.000000" y1="0.000000" x2="53.000000" y2="0.000000" stroke-width="10" stroke="black" />
<line x1="53.000000" y1="0.000000" x2="54.000000" y2="0.000000" stroke-width="10" stroke="black" />
<line x1="54.000000" y1="0.000000" x2="55.000000" y2="0.000000" stroke-width="10" stroke="black" />
<line x1="55.000000" y1="0.000000" x2="56.000000" y2="0.000000" stroke-width="10" stroke="black" />
<line x1="56.000000" y1="0.000000" x2="57.000000" y2="0.000000" stroke-width="10" stroke="black" />
<line x1="57.000000" y1="0.000000" x2="58.000000" y2="0.000000" stroke-width="10" stroke="black" />
<line x1="58.000000" y1="0.000000" x2="148.107697" y2="43.365910" stroke-width="10" stroke="black" />
<line x1="148.107697" y1="43.365910" x2="238.215408" y2="86.731819" stroke-width="10" stroke="black" />
<line x1="58.000000" y1="0.000000" x2="148.107697" y2="-43.365910" stroke-width="10" stroke="black" />
<line x1="148.107697" y1="-43.365910" x2="238.215408" y2="-86.731819" stroke-width="10" stroke="black" />
<line x1="58.000000" y1="0.000000" x2="59.000000" y2="0.000000" stroke-width="10" stroke="black" />
<line x1="59.000000" y1="0.000000" x2="60.000000" y2="0.000000" stroke-width="10" stroke="black" />
<line x1="60.000000" y1="0.000000" x2="61.000000" y2="0.000000" stroke-width="10" stroke="black" />
<line x1="61.000000" y1="0.000000" x2="62.000000" y2="0.000000" stroke-width="10" stroke="black" />
</svg>
