<svg viewBox="-649.000000 -550.000000 700.000000 800.000000" xmlns="http://www.w3.org/2000/svg">
<line x1="0.000000" y1="0.000000" x2="1.000000" y2="0.000000" stroke-width="10" stroke="black" />
<line x1="1.000000" y1="0.000000" x2="1.000000" y2="100.000000" stroke-width="10" stroke="black" />
<line x1="1.000000" y1="100.000000" x2="-99.000000" y2="100.000000" stroke-width="10" stroke="black" />
<line x1="-99.000000" y1="100.000000" x2="-99.000000" y2="200.000000" stroke-width="10" stroke="black" />
<line x1="-99.000000" y1="200.000000" x2="-199.000000" y2="200.000000" stroke-width="10" stroke="black" />
<line x1="-199.000000" y1="200.000000" x2="-199.000000" y2="100.000000" stroke-width="10" stroke="black" />
<line x1="-199.000000" y1="100.000000" x2="-299.000000" y2="100.000000" stroke-width="10" stroke="black" />
<line x1="-299.000000" y1="100.000000" x2="-299.000000" y2="200.000000" stroke-width="10" stroke="black" />
<line x1="-299.000000" y1="200.000000" x2="-399.000000" y2="200.000000" stroke-width="10" stroke="black" />
<line x1="-399.000000" y1="200.000000" x2="-399.000000" y2="100.000000" stroke-width="10" stroke="black" />
<line x1="-399.000000" y1="100.000000" x2="-299.000000" y2="100.000000" stroke-width="10" stroke="black" />
<line x1="-299.000000" y1="100.000000" x2="-299.000000" y2="-0.000000" stroke-width="10" stroke="black" />
<line x1="-299.000000" y1="-0.000000" x2="-399.000000" y2="-0.000000" stroke-width="10" stroke="black" />
<line x1="-399.000000" y1="-0.000000" x2="-399.000000" y2="-100.000000" stroke-width="10" stroke="black" />
<line x1="-399.000000" y1="-100.000000" x2="-499.000000" y2="-100.000000" stroke-width="10" stroke="black" />
<line x1="-499.000000" y1="-100.000000" x2="-499.000000" y2="0.000000" stroke-width="10" stroke="black" />
<line x1="-499.000000" y1="0.000000" x2="-599.000000" y2="0.000000" stroke-width="10" stroke="black" />
<line x1="-599.000000" y1="0.000000" x2="-599.000000" y2="-100.000000" stroke-width="10" stroke="black" />
<line x1="-599.000000" y1="-100.000000" x2="-499.000000" y2="-100.000000" stroke-width="10" stroke="black" />
<line x1="-499.000000" y1="-100.000000" x2="-499.000000" y2="-200.000000" stroke-width="10" stroke="black" />
<line x1="-499.000000" y1="-200.000000" x2="-399.000000" y2="-200.000000" stroke-width="10" stroke="black" />
<line x1="-399.000000" y1="-200.000000" x2="-399.000000" y2="-100.000000" stroke-width="10" stroke="black" />
<line x1="-399.000000" y1="-100.000000" x2="-299.000000" y2="-100.000000" stroke-width="10" stroke="black" />
<line x1="-299.000000" y1="-100.000000" x2="-299.000000" y2="-200.000000" stroke-width="10" stroke="black" />
<line x1="-299.000000" y1="-200.000000" x2="-399.000000" y2="-200.000000" stroke-width="10" stroke="black" />
<line x1="-399.000000" y1="-200.000000" x2="-399.000000" y2="-300.000000" stroke-width="10" stroke="black" />
<line x1="-399.000000" y1="-300.000000" x2="-299.000000" y2="-300.000000" stroke-width="10" stroke="black" />
<line x1="-299.000000" y1="-300.000000" x2="-299.000000" y2="-400.000000" stroke-width="10" stroke="black" />
<line x1="-299.000000" y1="-400.000000" x2="-399.000000" y2="-400.000000" stroke-width="10" stroke="black" />
<line x1="-399.000000" y1="-400.000000" x2="-399.000000" y2="-500.000000" stroke-width="10" stroke="black" />
<line x1="-399.000000" y1="-500.000000" x2="-499.000000" y2="-500.000000" stroke-width="10" stroke="black" />
<line x1="-499.000000" y1="-500.000000" x2="-499.000000" y2="-400.000000" stroke-width="10" stroke="black" />
</svg>
