<svg viewBox="-262.132034 -544.974762 1089.949478 665.685440" xmlns="http://www.w3.org/2000/svg">
<line x1="0.000000" y1="0.000000" x2="-70.710678" y2="70.710678" stroke-width="10" stroke="black" />
<line x1="-70.710678" y1="70.710678" x2="-141.421356" y2="-0.000000" stroke-width="10" stroke="black" />
<line x1="-141.421356" y1="-0.000000" x2="-212.132034" y2="-70.710678" stroke-width="10" stroke="black" />
<line x1="-212.132034" y1="-70.710678" x2="-141.421356" y2="-141.421356" stroke-width="10" stroke="black" />
<line x1="-141.421356" y1="-141.421356" x2="-212.132034" y2="-212.132034" stroke-width="10" stroke="black" />
<line x1="-212.132034" y1="-212.132034" x2="-141.421356" y2="-282.842712" stroke-width="10" stroke="black" />
<line x1="-141.421356" y1="-282.842712" x2="-70.710678" y2="-353.553406" stroke-width="10" stroke="black" />
<line x1="-70.710678" y1="-353.553406" x2="0.000000" y2="-282.842712" stroke-width="10" stroke="black" />
<line x1="0.000000" y1="-282.842712" x2="-70.710678" y2="-353.553406" stroke-width="10" stroke="black" />
<line x1="-70.710678" y1="-353.553406" x2="0.000000" y2="-424.264069" stroke-width="10" stroke="black" />
<line x1="0.000000" y1="-424.264069" x2="70.710678" y2="-494.974762" stroke-width="10" stroke="black" />
<line x1="70.710678" y1="-494.974762" x2="141.421356" y2="-424.264069" stroke-width="10" stroke="black" />
<line x1="141.421356" y1="-424.264069" x2="212.132034" y2="-494.974762" stroke-width="10" stroke="black" />
<line x1="212.132034" y1="-494.974762" x2="282.842712" y2="-424.264069" stroke-width="10" stroke="black" />
<line x1="282.842712" y1="-424.264069" x2="353.553406" y2="-353.553406" stroke-width="10" stroke="black" />
<line x1="353.553406" y1="-353.553406" x2="282.842712" y2="-282.842712" stroke-width="10" stroke="black" />
<line x1="282.842712" y1="-282.842712" x2="212.132034" y2="-353.553406" stroke-width="10" stroke="black" />
<line x1="212.132034" y1="-353.553406" x2="282.842712" y2="-424.264069" stroke-width="10" stroke="black" />
<line x1="282.842712" y1="-424.264069" x2="353.553406" y2="-494.974762" stroke-width="10" stroke="black" />
<line x1="353.553406" y1="-494.974762" x2="424.264069" y2="-424.264069" stroke-width="10" stroke="black" />
<line x1="424.264069" y1="-424.264069" x2="494.974762" y2="-494.974762" stroke-width="10" stroke="black" />
<line x1="494.974762" y1="-494.974762" x2="565.685425" y2="-424.264069" stroke-width="10" stroke="black" />
<line x1="565.685425" y1="-424.264069" x2="636.396118" y2="-353.553406" stroke-width="10" stroke="black" />
<line x1="636.396118" y1="-353.553406" x2="565.685425" y2="-282.842712" stroke-width="10" stroke="black" />
<line x1="565.685425" y1="-282.842712" x2="636.396118" y2="-353.553406" stroke-width="10" stroke="black" />
<line x1="636.396118" y1="-353.553406" x2="707.106812" y2="-282.842712" stroke-width="10" stroke="black" />
<line x1="707.106812" y1="-282.842712" x2="777.817444" y2="-212.132034" stroke-width="10" stroke="black" />
<line x1="777.817444" y1="-212.132034" x2="707.106812" y2="-141.421356" stroke-width="10" stroke="black" />
<line x1="707.106812" y1="-141.421356" x2="777.817444" y2="-70.710678" stroke-width="10" stroke="black" />
<line x1="777.817444" y1="-70.710678" x2="707.106812" y2="-0.000000" stroke-width="10" stroke="black" />
<line x1="707.106812" y1="-0.000000" x2="636.396118" y2="70.710678" stroke-width="10" stroke="black" />
<line x1="636.396118" y1="70.710678" x2="565.685425" y2="0.000000" stroke-width="10" stroke="black" />
</svg>
