<svg viewBox="-149.000000 -2821.281250 3300.000000 2871.281250" xmlns="http://www.w3.org/2000/svg">
<line x1="0.000000" y1="0.000000" x2="1.000000" y2="0.000000" stroke-width="10" stroke="black" />
<line x1="1.000000" y1="0.000000" x2="-49.000000" y2="-86.602539" stroke-width="10" stroke="black" />
<line x1="-49.000000" y1="-86.602539" x2="51.000000" y2="-86.602539" stroke-width="10" stroke="black" />
<line x1="51.000000" y1="-86.602539" x2="1.000000" y2="0.000000" stroke-width="10" stroke="black" />
<line x1="1.000000" y1="0.000000" x2="101.000000" y2="0.000000" stroke-width="10" stroke="black" />
<line x1="101.000000" y1="0.000000" x2="51.000000" y2="-86.602539" stroke-width="10" stroke="black" />
<line x1="51.000000" y1="-86.602539" x2="1.000000" y2="-173.205078" stroke-width="10" stroke="black" />
<line x1="1.000000" y1="-173.205078" x2="101.000000" y2="-173.205078" stroke-width="10" stroke="black" />
<line x1="101.000000" y1="-173.205078" x2="51.000000" y2="-259.807617" stroke-width="10" stroke="black" />
<line x1="51.000000" y1="-259.807617" x2="151.000000" y2="-259.807617" stroke-width="10" stroke="black" />
<line x1="151.000000" y1="-259.807617" x2="101.000000" y2="-173.205078" stroke-width="10" stroke="black" />
<line x1="101.000000" y1="-173.205078" x2="201.000000" y2="-173.205078" stroke-width="10" stroke="black" />
<line x1="201.000000" y1="-173.205078" x2="151.000000" y2="-86.602539" stroke-width="10" stroke="black" />
<line x1="151.000000" y1="-86.602539" x2="101.000000" y2="0.000000" stroke-width="10" stroke="black" />
<line x1="101.000000" y1="0.000000" x2="201.000000" y2="0.000000" stroke-width="10" stroke="black" />
<line x1="201.000000" y1="0.000000" x2="151.000000" y2="-86.602539" stroke-width="10" stroke="black" />
<line x1="151.000000" y1="-86.602539" x2="251.000000" y2="-86.602539" stroke-width="10" stroke="black" />
<line x1="251.000000" y1="-86.602539" x2="201.000000" y2="0.000000" stroke-width="10" stroke="black" />
<line x1="201.000000" y1="0.000000" x2="301.000000" y2="0.000000" stroke-width="10" stroke="black" />
<line x1="301.000000" y1="0.000000" x2="251.000000" y2="-86.602539" stroke-width="10" stroke="black" />
<line x1="251.000000" y1="-86.602539" x2="201.000000" y2="-173.205078" stroke-width="10" stroke="black" />
<line x1="201.000000" y1="-173.205078" x2="151.000000" y2="-259.807617" stroke-width="10" stroke="black" />
<line x1="151.000000" y1="-259.807617" x2="101.000000" y2="-346.410156" stroke-width="10" stroke="black" />
<line x1="101.000000" y1="-346.410156" x2="201.000000" y2="-346.410156" stroke-width="10" stroke="black" />
<line x1="201.000000" y1="-346.410156" x2="151.000000" y2="-433.012695" stroke-width="10" stroke="black" />
<line x1="151.000000" y1="-433.012695" x2="251.000000" y2="-433.012695" stroke-width="10" stroke="black" />
<line x1="251.000000" y1="-433.012695" x2="201.000000" y2="-346.410156" stroke-width="10" stroke="black" />
<line x1="201.000000" y1="-346.410156" x2="301.000000" y2="-346.410156" stroke-width="10" stroke="black" />
<line x1="301.000000" y1="-346.410156" x2="251.000000" y2="-433.012695" stroke-width="10" stroke="black" />
<line x1="251.000000" y1="-433.012695" x2="201.000000" y2="-519.615234" stroke-width="10" stroke="black" />
<line x1="201.000000" y1="-519.615234" x2="301.000000" y2="-519.615234" stroke-width="10" stroke="black" />
<line x1="301.000000" y1="-519.615234" x2="251.000000" y2="-606.217773" stroke-width="10" stroke="black" />
<line x1="251.000000" y1="-606.217773" x2="351.000000" y2="-606.217773" stroke-width="10" stroke="black" />
<line x1="351.000000" y1="-606.217773" x2="301.000000" y2="-519.615234" stroke-width="10" stroke="black" />
<line x1="301.000000" y1="-519.615234" x2="401.000000" y2="-519.615234" stroke-width="10" stroke="black" />
<line x1="401.000000" y1="-519.615234" x2="351.000000" y2="-433.012695" stroke-width="10" stroke="black" />
<line x1="351.000000" y1="-433.012695" x2="301.000000" y2="-346.410156" stroke-width="10" stroke="black" />
<line x1="301.000000" y1="-346.410156" x2="401.000000" y2="-346.410156" stroke-width="10" stroke="black" />
<line x1="401.000000" y1="-346.410156" x2="351.000000" y2="-433.012695" stroke-width="10" stroke="black" />
<line x1="351.000000" y1="-433.012695" x2="451.000000" y2="-433.012695" stroke-width="10" stroke="black" />
<line x1="451.000000" y1="-433.012695" x2="401.000000" y2="-346.410156" stroke-width="10" stroke="black" />
<line x1="401.000000" y1="-346.410156" x2="501.000000" y2="-346.410156" stroke-width="10" stroke="black" />
<line x1="501.000000" y1="-346.410156" x2="451.000000" y2="-259.807617" stroke-width="10" stroke="black" />
<line x1="451.000000" y1="-259.807617" x2="401.000000" y2="-173.205078" stroke-width="10" stroke="black" />
<line x1="401.000000" y1="-173.205078" x2="351.000000" y2="-86.602539" stroke-width="10" stroke="black" />
<line x1="351.000000" y1="-86.602539" x2="301.000000" y2="0.000000" stroke-width="10" stroke="black" />
<line x1="301.000000" y1="0.000000" x2="401.000000" y2="0.000000" stroke-width="10" stroke="black" />
<line x1="401.000000" y1="0.000000" x2="351.000000" y2="-86.602539" stroke-width="10" stroke="black" />
<line x1="351.000000" y1="-86.602539" x2="451.000000" y2="-86.602539" stroke-width="10" stroke="black" />
<line x1="451.000000" y1="-86.602539" x2="401.000000" y2="0.000000" stroke-width="10" stroke="black" />
<line x1="401.000000" y1="0.000000" x2="501.000000" y2="0.000000" stroke-width="10" stroke="black" />
<line x1="501.000000" y1="0.000000" x2="451.000000" y2="-86.602539" stroke-width="10" stroke="black" />
<line x1="451.000000" y1="-86.602539" x2="401.000000" y2="-173.205078" stroke-width="10" stroke="black" />
<line x1="401.000000" y1="-173.205078" x2="501.000000" y2="-173.205078" stroke-width="10" stroke="black" />
<line x1="501.000000" y1="-173.205078" x2="451.000000" y2="-259.807617" stroke-width="10" stroke="black" />
<line x1="451.000000" y1="-259.807617" x2="551.000000" y2="-259.807617" stroke-width="10" stroke="black" />
<line x1="551.000000" y1="-259.807617" x2="501.000000" y2="-173.205078" stroke-width="10" stroke="black" />
<line x1="501.000000" y1="-173.205078" x2="601.000000" y2="-173.205078" stroke-width="10" stroke="black" />
<line x1="601.000000" y1="-173.205078" x2="551.000000" y2="-86.602539" stroke-width="10" stroke="black" />
<line x1="551.000000" y1="-86.602539" x2="501.000000" y2="0.000000" stroke-width="10" stroke="black" />
<line x1="501.000000" y1="0.000000" x2="601.000000" y2="0.000000" stroke-width="10" stroke="black" />
<line x1="601.000000" y1="0.000000" x2="551.000000" y2="-86.602539" stroke-width="10" stroke="black" />
<line x1="551.000000" y1="-86.602539" x2="651.000000" y2="-86.602539" stroke-width="10" stroke="black" />
<line x1="651.000000" y1="-86.602539" x2="601.000000" y2="0.000000" stroke-width="10" stroke="black" />
<line x1="601.000000" y1="0.000000" x2="701.000000" y2="0.000000" stroke-width="10" stroke="black" />
<line x1="701.000000" y1="0.000000" x2="651.000000" y2="-86.602539" stroke-width="10" stroke="black" />
<line x1="651.000000" y1="-86.602539" x2="601.000000" y2="-173.205078" stroke-width="10" stroke="black" />
<line x1="601.000000" y1="-173.205078" x2="551.000000" y2="-259.807617" stroke-width="10" stroke="black" />
<line x1="551.000000" y1="-259.807617" x2="501.000000" y2="-346.410156" stroke-width="10" stroke="black" />
<line x1="501.000000" y1="-346.410156" x2="451.000000" y2="-433.012695" stroke-width="10" stroke="black" />
<line x1="451.000000" y1="-433.012695" x2="401.000000" y2="-519.615234" stroke-width="10" stroke="black" />
<line x1="401.000000" y1="-519.615234" x2="351.000000" y2="-606.217773" stroke-width="10" stroke="black" />
<line x1="351.000000" y1="-606.217773" x2="301.000000" y2="-692.820313" stroke-width="10" stroke="black" />
<line x1="301.000000" y1="-692.820313" x2="401.000000" y2="-692.820313" stroke-width="10" stroke="black" />
<line x1="401.000000" y1="-692.820313" x2="351.000000" y2="-779.422852" stroke-width="10" stroke="black" />
<line x1="351.000000" y1="-779.422852" x2="451.000000" y2="-779.422852" stroke-width="10" stroke="black" />
<line x1="451.000000" y1="-779.422852" x2="401.000000" y2="-692.820313" stroke-width="10" stroke="black" />
<line x1="401.000000" y1="-692.820313" x2="501.000000" y2="-692.820313" stroke-width="10" stroke="black" />
<line x1="501.000000" y1="-692.820313" x2="451.000000" y2="-779.422852" stroke-width="10" stroke="black" />
<line x1="451.000000" y1="-779.422852" x2="401.000000" y2="-866.025391" stroke-width="10" stroke="black" />
<line x1="401.000000" y1="-866.025391" x2="501.000000" y2="-866.025391" stroke-width="10" stroke="black" />
<line x1="501.000000" y1="-866.025391" x2="451.000000" y2="-952.627930" stroke-width="10" stroke="black" />
<line x1="451.000000" y1="-952.627930" x2="551.000000" y2="-952.627930" stroke-width="10" stroke="black" />
<line x1="551.000000" y1="-952.627930" x2="501.000000" y2="-866.025391" stroke-width="10" stroke="black" />
<line x1="501.000000" y1="-866.025391" x2="601.000000" y2="-866.025391" stroke-width="10" stroke="black" />
<line x1="601.000000" y1="-866.025391" x2="551.000000" y2="-779.422852" stroke-width="10" stroke="black" />
<line x1="551.000000" y1="-779.422852" x2="501.000000" y2="-692.820313" stroke-width="10" stroke="black" />
<line x1="501.000000" y1="-692.820313" x2="601.000000" y2="-692.820313" stroke-width="10" stroke="black" />
<line x1="601.000000" y1="-692.820313" x2="551.000000" y2="-779.422852" stroke-width="10" stroke="black" />
<line x1="551.000000" y1="-779.422852" x2="651.000000" y2="-779.422852" stroke-width="10" stroke="black" />
<line x1="651.000000" y1="-779.422852" x2="601.000000" y2="-692.820313" stroke-width="10" stroke="black" />
<line x1="601.000000" y1="-692.820313" x2="701.000000" y2="-692.820313" stroke-width="10" stroke="black" />
<line x1="701.000000" y1="-692.820313" x2="651.000000" y2="-779.422852" stroke-width="10" stroke="black" />
<line x1="651.000000" y1="-779.422852" x2="601.000000" y2="-866.025391" stroke-width="10" stroke="black" />
<line x1="601.000000" y1="-866.025391" x2="551.000000" y2="-952.627930" stroke-width="10" stroke="black" />
<line x1="551.000000" y1="-952.627930" x2="501.000000" y2="-1039.230469" stroke-width="10" stroke="black" />
<line x1="501.000000" y1="-1039.230469" x2="601.000000" y2="-1039.230469" stroke-width="10" stroke="black" />
<line x1="601.000000" y1="-1039.230469" x2="551.000000" y2="-1125.833008" stroke-width="10" stroke="black" />
<line x1="551.000000" y1="-1125.833008" x2="651.000000" y2="-1125.833008" stroke-width="10" stroke="black" />
<line x1="651.000000" y1="-1125.833008" x2="601.000000" y2="-1039.230469" stroke-width="10" stroke="black" />
<line x1="601.000000" y1="-1039.230469" x2="701.000000" y2="-1039.230469" stroke-width="10" stroke="black" />
<line x1="701.000000" y1="-1039.230469" x2="651.000000" y2="-1125.833008" stroke-width="10" stroke="black" />
<line x1="651.000000" y1="-1125.833008" x2="601.000000" y2="-1212.435547" stroke-width="10" stroke="black" />
<line x1="601.000000" y1="-1212.435547" x2="701.000000" y2="-1212.435547" stroke-width="10" stroke="black" />
<line x1="701.000000" y1="-1212.435547" x2="651.000000" y2="-1299.038086" stroke-width="10" stroke="black" />
<line x1="651.000000" y1="-1299.038086" x2="751.000000" y2="-1299.038086" stroke-width="10" stroke="black" />
<line x1="751.000000" y1="-1299.038086" x2="701.000000" y2="-1212.435547" stroke-width="10" stroke="black" />
<line x1="701.000000" y1="-1212.435547" x2="801.000000" y2="-1212.435547" stroke-width="10" stroke="black" />
<line x1="801.000000" y1="-1212.435547" x2="751.000000" y2="-1125.833008" stroke-width="10" stroke="black" />
<line x1="751.000000" y1="-1125.833008" x2="701.000000" y2="-1039.230469" stroke-width="10" stroke="black" />
<line x1="701.000000" y1="-1039.230469" x2="801.000000" y2="-1039.230469" stroke-width="10" stroke="black" />
<line x1="801.000000" y1="-1039.230469" x2="751.000000" y2="-1125.833008" stroke-width="10" stroke="black" />
<line x1="751.000000" y1="-1125.833008" x2="851.000000" y2="-1125.833008" stroke-width="10" stroke="black" />
<line x1="851.000000" y1="-1125.833008" x2="801.000000" y2="-1039.230469" stroke-width="10" stroke="black" />
<line x1="801.000000" y1="-1039.230469" x2="901.000000" y2="-1039.230469" stroke-width="10" stroke="black" />
<line x1="901.000000" y1="-1039.230469" x2="851.000000" y2="-952.627930" stroke-width="10" stroke="black" />
<line x1="851.000000" y1="-952.627930" x2="801.000000" y2="-866.025391" stroke-width="10" stroke="black" />
<line x1="801.000000" y1="-866.025391" x2="751.000000" y2="-779.422852" stroke-width="10" stroke="black" />
<line x1="751.000000" y1="-779.422852" x2="701.000000" y2="-692.820313" stroke-width="10" stroke="black" />
<line x1="701.000000" y1="-692.820313" x2="801.000000" y2="-692.820313" stroke-width="10" stroke="black" />
<line x1="801.000000" y1="-692.820313" x2="751.000000" y2="-779.422852" stroke-width="10" stroke="black" />
<line x1="751.000000" y1="-779.422852" x2="851.000000" y2="-779.422852" stroke-width="10" stroke="black" />
<line x1="851.000000" y1="-779.422852" x2="801.000000" y2="-692.820313" stroke-width="10" stroke="black" />
<line x1="801.000000" y1="-692.820313" x2="901.000000" y2="-692.820313" stroke-width="10" stroke="black" />
<line x1="901.000000" y1="-692.820313" x2="851.000000" y2="-779.422852" stroke-width="10" stroke="black" />
<line x1="851.000000" y1="-779.422852" x2="801.000000" y2="-866.025391" stroke-width="10" stroke="black" />
<line x1="801.000000" y1="-866.025391" x2="901.000000" y2="-866.025391" stroke-width="10" stroke="black" />
<line x1="901.000000" y1="-866.025391" x2="851.000000" y2="-952.627930" stroke-width="10" stroke="black" />
<line x1="851.000000" y1="-952.627930" x2="951.000000" y2="-952.627930" stroke-width="10" stroke="black" />
<line x1="951.000000" y1="-952.627930" x2="901.000000" y2="-866.025391" stroke-width="10" stroke="black" />
<line x1="901.000000" y1="-866.025391" x2="1001.000000" y2="-866.025391" stroke-width="10" stroke="black" />
<line x1="1001.000000" y1="-866.025391" x2="951.000000" y2="-779.422852" stroke-width="10" stroke="black" />
<line x1="951.000000" y1="-779.422852" x2="901.000000" y2="-692.820313" stroke-width="10" stroke="black" />
<line x1="901.000000" y1="-692.820313" x2="1001.000000" y2="-692.820313" stroke-width="10" stroke="black" />
<line x1="1001.000000" y1="-692.820313" x2="951.000000" y2="-779.422852" stroke-width="10" stroke="black" />
<line x1="951.000000" y1="-779.422852" x2="1051.000000" y2="-779.422852" stroke-width="10" stroke="black" />
<line x1="1051.000000" y1="-779.422852" x2="1001.000000" y2="-692.820313" stroke-width="10" stroke="black" />
<line x1="1001.000000" y1="-692.820313" x2="1101.000000" y2="-692.820313" stroke-width="10" stroke="black" />
<line x1="1101.000000" y1="-692.820313" x2="1051.000000" y2="-606.217773" stroke-width="10" stroke="black" />
<line x1="1051.000000" y1="-606.217773" x2="1001.000000" y2="-519.615234" stroke-width="10" stroke="black" />
<line x1="1001.000000" y1="-519.615234" x2="951.000000" y2="-433.012695" stroke-width="10" stroke="black" />
<line x1="951.000000" y1="-433.012695" x2="901.000000" y2="-346.410156" stroke-width="10" stroke="black" />
<line x1="901.000000" y1="-346.410156" x2="851.000000" y2="-259.807617" stroke-width="10" stroke="black" />
<line x1="851.000000" y1="-259.807617" x2="801.000000" y2="-173.205078" stroke-width="10" stroke="black" />
<line x1="801.000000" y1="-173.205078" x2="751.000000" y2="-86.602539" stroke-width="10" stroke="black" />
<line x1="751.000000" y1="-86.602539" x2="701.000000" y2="0.000000" stroke-width="10" stroke="black" />
<line x1="701.000000" y1="0.000000" x2="801.000000" y2="0.000000" stroke-width="10" stroke="black" />
<line x1="801.000000" y1="0.000000" x2="751.000000" y2="-86.602539" stroke-width="10" stroke="black" />
<line x1="751.000000" y1="-86.602539" x2="851.000000" y2="-86.602539" stroke-width="10" stroke="black" />
<line x1="851.000000" y1="-86.602539" x2="801.000000" y2="0.000000" stroke-width="10" stroke="black" />
<line x1="801.000000" y1="0.000000" x2="901.000000" y2="0.000000" stroke-width="10" stroke="black" />
<line x1="901.000000" y1="0.000000" x2="851.000000" y2="-86.602539" stroke-width="10" stroke="black" />
<line x1="851.000000" y1="-86.602539" x2="801.000000" y2="-173.205078" stroke-width="10" stroke="black" />
<line x1="801.000000" y1="-173.205078" x2="901.000000" y2="-173.205078" stroke-width="10" stroke="black" />
<line x1="901.000000" y1="-173.205078" x2="851.000000" y2="-259.807617" stroke-width="10" stroke="black" />
<line x1="851.000000" y1="-259.807617" x2="951.000000" y2="-259.807617" stroke-width="10" stroke="black" />
<line x1="951.000000" y1="-259.807617" x2="901.000000" y2="-173.205078" stroke-width="10" stroke="black" />
<line x1="901.000000" y1="-173.205078" x2="1001.000000" y2="-173.205078" stroke-width="10" stroke="black" />
<line x1="1001.000000" y1="-173.205078" x2="951.000000" y2="-86.602539" stroke-width="10" stroke="black" />
<line x1="951.000000" y1="-86.602539" x2="901.000000" y2="0.000000" stroke-width="10" stroke="black" />
<line x1="901.000000" y1="0.000000" x2="1001.000000" y2="0.000000" stroke-width="10" stroke="black" />
<line x1="1001.000000" y1="0.000000" x2="951.000000" y2="-86.602539" stroke-width="10" stroke="black" />
<line x1="951.000000" y1="-86.602539" x2="1051.000000" y2="-86.602539" stroke-width="10" stroke="black" />
<line x1="1051.000000" y1="-86.602539" x2="1001.000000" y2="0.000000" stroke-width="10" stroke="black" />
<line x1="1001.000000" y1="0.000000" x2="1101.000000" y2="0.000000" stroke-width="10" stroke="black" />
<line x1="1101.000000" y1="0.000000" x2="1051.000000" y2="-86.602539" stroke-width="10" stroke="black" />
<line x1="1051.000000" y1="-86.602539" x2="1001.000000" y2="-173.205078" stroke-width="10" stroke="black" />
<line x1="1001.000000" y1="-173.205078" x2="951.000000" y2="-259.807617" stroke-width="10" stroke="black" />
<line x1="951.000000" y1="-259.807617" x2="901.000000" y2="-346.410156" stroke-width="10" stroke="black" />
<line x1="901.000000" y1="-346.410156" x2="1001.000000" y2="-346.410156" stroke-width="10" stroke="black" />
<line x1="1001.000000" y1="-346.410156" x2="951.000000" y2="-433.012695" stroke-width="10" stroke="black" />
<line x1="951.000000" y1="-433.012695" x2="1051.000000" y2="-433.012695" stroke-width="10" stroke="black" />
<line x1="1051.000000" y1="-433.012695" x2="1001.000000" y2="-346.410156" stroke-width="10" stroke="black" />
<line x1="1001.000000" y1="-346.410156" x2="1101.000000" y2="-346.410156" stroke-width="10" stroke="black" />
<line x1="1101.000000" y1="-346.410156" x2="1051.000000" y2="-433.012695" stroke-width="10" stroke="black" />
<line x1="1051.000000" y1="-433.012695" x2="1001.000000" y2="-519.615234" stroke-width="10" stroke="black" />
<line x1="1001.000000" y1="-519.615234" x2="1101.000000" y2="-519.615234" stroke-width="10" stroke="black" />
<line x1="1101.000000" y1="-519.615234" x2="1051.000000" y2="-606.217773" stroke-width="10" stroke="black" />
<line x1="1051.000000" y1="-606.217773" x2="1151.000000" y2="-606.217773" stroke-width="10" stroke="black" />
<line x1="1151.000000" y1="-606.217773" x2="1101.000000" y2="-519.615234" stroke-width="10" stroke="black" />
<line x1="1101.000000" y1="-519.615234" x2="1201.000000" y2="-519.615234" stroke-width="10" stroke="black" />
<line x1="1201.000000" y1="-519.615234" x2="1151.000000" y2="-433.012695" stroke-width="10" stroke="black" />
<line x1="1151.000000" y1="-433.012695" x2="1101.000000" y2="-346.410156" stroke-width="10" stroke="black" />
<line x1="1101.000000" y1="-346.410156" x2="1201.000000" y2="-346.410156" stroke-width="10" stroke="black" />
<line x1="1201.000000" y1="-346.410156" x2="1151.000000" y2="-433.012695" stroke-width="10" stroke="black" />
<line x1="1151.000000" y1="-433.012695" x2="1251.000000" y2="-433.012695" stroke-width="10" stroke="black" />
<line x1="1251.000000" y1="-433.012695" x2="1201.000000" y2="-346.410156" stroke-width="10" stroke="black" />
<line x1="1201.000000" y1="-346.410156" x2="1301.000000" y2="-346.410156" stroke-width="10" stroke="black" />
<line x1="1301.000000" y1="-346.410156" x2="1251.000000" y2="-259.807617" stroke-width="10" stroke="black" />
<line x1="1251.000000" y1="-259.807617" x2="1201.000000" y2="-173.205078" stroke-width="10" stroke="black" />
<line x1="1201.000000" y1="-173.205078" x2="1151.000000" y2="-86.602539" stroke-width="10" stroke="black" />
<line x1="1151.000000" y1="-86.602539" x2="1101.000000" y2="0.000000" stroke-width="10" stroke="black" />
<line x1="1101.000000" y1="0.000000" x2="1201.000000" y2="0.000000" stroke-width="10" stroke="black" />
<line x1="1201.000000" y1="0.000000" x2="1151.000000" y2="-86.602539" stroke-width="10" stroke="black" />
<line x1="1151.000000" y1="-86.602539" x2="1251.000000" y2="-86.602539" stroke-width="10" stroke="black" />
<line x1="1251.000000" y1="-86.602539" x2="1201.000000" y2="0.000000" stroke-width="10" stroke="black" />
<line x1="1201.000000" y1="0.000000" x2="1301.000000" y2="0.000000" stroke-width="10" stroke="black" />
<line x1="1301.000000" y1="0.000000" x2="1251.000000" y2="-86.602539" stroke-width="10" stroke="black" />
<line x1="1251.000000" y1="-86.602539" x2="1201.000000" y2="-173.205078" stroke-width="10" stroke="black" />
<line x1="1201.000000" y1="-173.205078" x2="1301.000000" y2="-173.205078" stroke-width="10" stroke="black" />
<line x1="1301.000000" y1="-173.205078" x2="1251.000000" y2="-259.807617" stroke-width="10" stroke="black" />
<line x1="1251.000000" y1="-259.807617" x2="1351.000000" y2="-259.807617" stroke-width="10" stroke="black" />
<line x1="1351.000000" y1="-259.807617" x2="1301.000000" y2="-173.205078" stroke-width="10" stroke="black" />
<line x1="1301.000000" y1="-173.205078" x2="1401.000000" y2="-173.205078" stroke-width="10" stroke="black" />
<line x1="1401.000000" y1="-173.205078" x2="1351.000000" y2="-86.602539" stroke-width="10" stroke="black" />
<line x1="1351.000000" y1="-86.602539" x2="1301.000000" y2="0.000000" stroke-width="10" stroke="black" />
<line x1="1301.000000" y1="0.000000" x2="1401.000000" y2="0.000000" stroke-width="10" stroke="black" />
<line x1="1401.000000" y1="0.000000" x2="1351.000000" y2="-86.602539" stroke-width="10" stroke="black" />
<line x1="1351.000000" y1="-86.602539" x2="1451.000000" y2="-86.602539" stroke-width="10" stroke="black" />
<line x1="1451.000000" y1="-86.602539" x2="1401.000000" y2="0.000000" stroke-width="10" stroke="black" />
<line x1="1401.000000" y1="0.000000" x2="1501.000000" y2="0.000000" stroke-width="10" stroke="black" />
<line x1="1501.000000" y1="0.000000" x2="1451.000000" y2="-86.602539" stroke-width="10" stroke="black" />
<line x1="1451.000000" y1="-86.602539" x2="1401.000000" y2="-173.205078" stroke-width="10" stroke="black" />
<line x1="1401.000000" y1="-173.205078" x2="1351.000000" y2="-259.807617" stroke-width="10" stroke="black" />
<line x1="1351.000000" y1="-259.807617" x2="1301.000000" y2="-346.410156" stroke-width="10" stroke="black" />
<line x1="1301.000000" y1="-346.410156" x2="1251.000000" y2="-433.012695" stroke-width="10" stroke="black" />
<line x1="1251.000000" y1="-433.012695" x2="1201.000000" y2="-519.615234" stroke-width="10" stroke="black" />
<line x1="1201.000000" y1="-519.615234" x2="1151.000000" y2="-606.217773" stroke-width="10" stroke="black" />
<line x1="1151.000000" y1="-606.217773" x2="1101.000000" y2="-692.820313" stroke-width="10" stroke="black" />
<line x1="1101.000000" y1="-692.820313" x2="1051.000000" y2="-779.422852" stroke-width="10" stroke="black" />
<line x1="1051.000000" y1="-779.422852" x2="1001.000000" y2="-866.025391" stroke-width="10" stroke="black" />
<line x1="1001.000000" y1="-866.025391" x2="951.000000" y2="-952.627930" stroke-width="10" stroke="black" />
<line x1="951.000000" y1="-952.627930" x2="901.000000" y2="-1039.230469" stroke-width="10" stroke="black" />
<line x1="901.000000" y1="-1039.230469" x2="851.000000" y2="-1125.833008" stroke-width="10" stroke="black" />
<line x1="851.000000" y1="-1125.833008" x2="801.000000" y2="-1212.435547" stroke-width="10" stroke="black" />
<line x1="801.000000" y1="-1212.435547" x2="751.000000" y2="-1299.038086" stroke-width="10" stroke="black" />
<line x1="751.000000" y1="-1299.038086" x2="701.000000" y2="-1385.640625" stroke-width="10" stroke="black" />
<line x1="701.000000" y1="-1385.640625" x2="801.000000" y2="-1385.640625" stroke-width="10" stroke="black" />
<line x1="801.000000" y1="-1385.640625" x2="751.000000" y2="-1472.243164" stroke-width="10" stroke="black" />
<line x1="751.000000" y1="-1472.243164" x2="851.000000" y2="-1472.243164" stroke-width="10" stroke="black" />
<line x1="851.000000" y1="-1472.243164" x2="801.000000" y2="-1385.640625" stroke-width="10" stroke="black" />
<line x1="801.000000" y1="-1385.640625" x2="901.000000" y2="-1385.640625" stroke-width="10" stroke="black" />
<line x1="901.000000" y1="-1385.640625" x2="851.000000" y2="-1472.243164" stroke-width="10" stroke="black" />
<line x1="851.000000" y1="-1472.243164" x2="801.000000" y2="-1558.845703" stroke-width="10" stroke="black" />
<line x1="801.000000" y1="-1558.845703" x2="901.000000" y2="-1558.845703" stroke-width="10" stroke="black" />
<line x1="901.000000" y1="-1558.845703" x2="851.000000" y2="-1645.448242" stroke-width="10" stroke="black" />
<line x1="851.000000" y1="-1645.448242" x2="951.000000" y2="-1645.448242" stroke-width="10" stroke="black" />
<line x1="951.000000" y1="-1645.448242" x2="901.000000" y2="-1558.845703" stroke-width="10" stroke="black" />
<line x1="901.000000" y1="-1558.845703" x2="1001.000000" y2="-1558.845703" stroke-width="10" stroke="black" />
<line x1="1001.000000" y1="-1558.845703" x2="951.000000" y2="-1472.243164" stroke-width="10" stroke="black" />
<line x1="951.000000" y1="-1472.243164" x2="901.000000" y2="-1385.640625" stroke-width="10" stroke="black" />
<line x1="901.000000" y1="-1385.640625" x2="1001.000000" y2="-1385.640625" stroke-width="10" stroke="black" />
<line x1="1001.000000" y1="-1385.640625" x2="951.000000" y2="-1472.243164" stroke-width="10" stroke="black" />
<line x1="951.000000" y1="-1472.243164" x2="1051.000000" y2="-1472.243164" stroke-width="10" stroke="black" />
<line x1="1051.000000" y1="-1472.243164" x2="1001.000000" y2="-1385.640625" stroke-width="10" stroke="black" />
<line x1="1001.000000" y1="-1385.640625" x2="1101.000000" y2="-1385.640625" stroke-width="10" stroke="black" />
<line x1="1101.000000" y1="-1385.640625" x2="1051.000000" y2="-1472.243164" stroke-width="10" stroke="black" />
<line x1="1051.000000" y1="-1472.243164" x2="1001.000000" y2="-1558.845703" stroke-width="10" stroke="black" />
<line x1="1001.000000" y1="-1558.845703" x2="951.000000" y2="-1645.448242" stroke-width="10" stroke="black" />
<line x1="951.000000" y1="-1645.448242" x2="901.000000" y2="-1732.050781" stroke-width="10" stroke="black" />
<line x1="901.000000" y1="-1732.050781" x2="1001.000000" y2="-1732.050781" stroke-width="10" stroke="black" />
<line x1="1001.000000" y1="-1732.050781" x2="951.000000" y2="-1818.653320" stroke-width="10" stroke="black" />
<line x1="951.000000" y1="-1818.653320" x2="1051.000000" y2="-1818.653320" stroke-width="10" stroke="black" />
<line x1="1051.000000" y1="-1818.653320" x2="1001.000000" y2="-1732.050781" stroke-width="10" stroke="black" />
<line x1="1001.000000" y1="-1732.050781" x2="1101.000000" y2="-1732.050781" stroke-width="10" stroke="black" />
<line x1="1101.000000" y1="-1732.050781" x2="1051.000000" y2="-1818.653320" stroke-width="10" stroke="black" />
<line x1="1051.000000" y1="-1818.653320" x2="1001.000000" y2="-1905.255859" stroke-width="10" stroke="black" />
<line x1="1001.000000" y1="-1905.255859" x2="1101.000000" y2="-1905.255859" stroke-width="10" stroke="black" />
<line x1="1101.000000" y1="-1905.255859" x2="1051.000000" y2="-1991.858398" stroke-width="10" stroke="black" />
<line x1="1051.000000" y1="-1991.858398" x2="1151.000000" y2="-1991.858398" stroke-width="10" stroke="black" />
<line x1="1151.000000" y1="-1991.858398" x2="1101.000000" y2="-1905.255859" stroke-width="10" stroke="black" />
<line x1="1101.000000" y1="-1905.255859" x2="1201.000000" y2="-1905.255859" stroke-width="10" stroke="black" />
<line x1="1201.000000" y1="-1905.255859" x2="1151.000000" y2="-1818.653320" stroke-width="10" stroke="black" />
<line x1="1151.000000" y1="-1818.653320" x2="1101.000000" y2="-1732.050781" stroke-width="10" stroke="black" />
<line x1="1101.000000" y1="-1732.050781" x2="1201.000000" y2="-1732.050781" stroke-width="10" stroke="black" />
<line x1="1201.000000" y1="-1732.050781" x2="1151.000000" y2="-1818.653320" stroke-width="10" stroke="black" />
<line x1="1151.000000" y1="-1818.653320" x2="1251.000000" y2="-1818.653320" stroke-width="10" stroke="black" />
<line x1="1251.000000" y1="-1818.653320" x2="1201.000000" y2="-1732.050781" stroke-width="10" stroke="black" />
<line x1="1201.000000" y1="-1732.050781" x2="1301.000000" y2="-1732.050781" stroke-width="10" stroke="black" />
<line x1="1301.000000" y1="-1732.050781" x2="1251.000000" y2="-1645.448242" stroke-width="10" stroke="black" />
<line x1="1251.000000" y1="-1645.448242" x2="1201.000000" y2="-1558.845703" stroke-width="10" stroke="black" />
<line x1="1201.000000" y1="-1558.845703" x2="1151.000000" y2="-1472.243164" stroke-width="10" stroke="black" />
<line x1="1151.000000" y1="-1472.243164" x2="1101.000000" y2="-1385.640625" stroke-width="10" stroke="black" />
<line x1="1101.000000" y1="-1385.640625" x2="1201.000000" y2="-1385.640625" stroke-width="10" stroke="black" />
<line x1="1201.000000" y1="-1385.640625" x2="1151.000000" y2="-1472.243164" stroke-width="10" stroke="black" />
<line x1="1151.000000" y1="-1472.243164" x2="1251.000000" y2="-1472.243164" stroke-width="10" stroke="black" />
<line x1="1251.000000" y1="-1472.243164" x2="1201.000000" y2="-1385.640625" stroke-width="10" stroke="black" />
<line x1="1201.000000" y1="-1385.640625" x2="1301.000000" y2="-1385.640625" stroke-width="10" stroke="black" />
<line x1="1301.000000" y1="-1385.640625" x2="1251.000000" y2="-1472.243164" stroke-width="10" stroke="black" />
<line x1="1251.000000" y1="-1472.243164" x2="1201.000000" y2="-1558.845703" stroke-width="10" stroke="black" />
<line x1="1201.000000" y1="-1558.845703" x2="1301.000000" y2="-1558.845703" stroke-width="10" stroke="black" />
<line x1="1301.000000" y1="-1558.845703" x2="1251.000000" y2="-1645.448242" stroke-width="10" stroke="black" />
<line x1="1251.000000" y1="-1645.448242" x2="1351.000000" y2="-1645.448242" stroke-width="10" stroke="black" />
<line x1="1351.000000" y1="-1645.448242" x2="1301.000000" y2="-1558.845703" stroke-width="10" stroke="black" />
<line x1="1301.000000" y1="-1558.845703" x2="1401.000000" y2="-1558.845703" stroke-width="10" stroke="black" />
<line x1="1401.000000" y1="-1558.845703" x2="1351.000000" y2="-1472.243164" stroke-width="10" stroke="black" />
<line x1="1351.000000" y1="-1472.243164" x2="1301.000000" y2="-1385.640625" stroke-width="10" stroke="black" />
<line x1="1301.000000" y1="-1385.640625" x2="1401.000000" y2="-1385.640625" stroke-width="10" stroke="black" />
<line x1="1401.000000" y1="-1385.640625" x2="1351.000000" y2="-1472.243164" stroke-width="10" stroke="black" />
<line x1="1351.000000" y1="-1472.243164" x2="1451.000000" y2="-1472.243164" stroke-width="10" stroke="black" />
<line x1="1451.000000" y1="-1472.243164" x2="1401.000000" y2="-1385.640625" stroke-width="10" stroke="black" />
<line x1="1401.000000" y1="-1385.640625" x2="1501.000000" y2="-1385.640625" stroke-width="10" stroke="black" />
<line x1="1501.000000" y1="-1385.640625" x2="1451.000000" y2="-1472.243164" stroke-width="10" stroke="black" />
<line x1="1451.000000" y1="-1472.243164" x2="1401.000000" y2="-1558.845703" stroke-width="10" stroke="black" />
<line x1="1401.000000" y1="-1558.845703" x2="1351.000000" y2="-1645.448242" stroke-width="10" stroke="black" />
<line x1="1351.000000" y1="-1645.448242" x2="1301.000000" y2="-1732.050781" stroke-width="10" stroke="black" />
<line x1="1301.000000" y1="-1732.050781" x2="1251.000000" y2="-1818.653320" stroke-width="10" stroke="black" />
<line x1="1251.000000" y1="-1818.653320" x2="1201.000000" y2="-1905.255859" stroke-width="10" stroke="black" />
<line x1="1201.000000" y1="-1905.255859" x2="1151.000000" y2="-1991.858398" stroke-width="10" stroke="black" />
<line x1="1151.000000" y1="-1991.858398" x2="1101.000000" y2="-2078.460938" stroke-width="10" stroke="black" />
<line x1="1101.000000" y1="-2078.460938" x2="1201.000000" y2="-2078.460938" stroke-width="10" stroke="black" />
<line x1="1201.000000" y1="-2078.460938" x2="1151.000000" y2="-2165.063477" stroke-width="10" stroke="black" />
<line x1="1151.000000" y1="-2165.063477" x2="1251.000000" y2="-2165.063477" stroke-width="10" stroke="black" />
<line x1="1251.000000" y1="-2165.063477" x2="1201.000000" y2="-2078.460938" stroke-width="10" stroke="black" />
<line x1="1201.000000" y1="-2078.460938" x2="1301.000000" y2="-2078.460938" stroke-width="10" stroke="black" />
<line x1="1301.000000" y1="-2078.460938" x2="1251.000000" y2="-2165.063477" stroke-width="10" stroke="black" />
<line x1="1251.000000" y1="-2165.063477" x2="1201.000000" y2="-2251.666016" stroke-width="10" stroke="black" />
<line x1="1201.000000" y1="-2251.666016" x2="1301.000000" y2="-2251.666016" stroke-width="10" stroke="black" />
<line x1="1301.000000" y1="-2251.666016" x2="1251.000000" y2="-2338.268555" stroke-width="10" stroke="black" />
<line x1="1251.000000" y1="-2338.268555" x2="1351.000000" y2="-2338.268555" stroke-width="10" stroke="black" />
<line x1="1351.000000" y1="-2338.268555" x2="1301.000000" y2="-2251.666016" stroke-width="10" stroke="black" />
<line x1="1301.000000" y1="-2251.666016" x2="1401.000000" y2="-2251.666016" stroke-width="10" stroke="black" />
<line x1="1401.000000" y1="-2251.666016" x2="1351.000000" y2="-2165.063477" stroke-width="10" stroke="black" />
<line x1="1351.000000" y1="-2165.063477" x2="1301.000000" y2="-2078.460938" stroke-width="10" stroke="black" />
<line x1="1301.000000" y1="-2078.460938" x2="1401.000000" y2="-2078.460938" stroke-width="10" stroke="black" />
<line x1="1401.000000" y1="-2078.460938" x2="1351.000000" y2="-2165.063477" stroke-width="10" stroke="black" />
<line x1="1351.000000" y1="-2165.063477" x2="1451.000000" y2="-2165.063477" stroke-width="10" stroke="black" />
<line x1="1451.000000" y1="-2165.063477" x2="1401.000000" y2="-2078.460938" stroke-width="10" stroke="black" />
<line x1="1401.000000" y1="-2078.460938" x2="1501.000000" y2="-2078.460938" stroke-width="10" stroke="black" />
<line x1="1501.000000" y1="-2078.460938" x2="1451.000000" y2="-2165.063477" stroke-width="10" stroke="black" />
<line x1="1451.000000" y1="-2165.063477" x2="1401.000000" y2="-2251.666016" stroke-width="10" stroke="black" />
<line x1="1401.000000" y1="-2251.666016" x2="1351.000000" y2="-2338.268555" stroke-width="10" stroke="black" />
<line x1="1351.000000" y1="-2338.268555" x2="1301.000000" y2="-2424.871094" stroke-width="10" stroke="black" />
<line x1="1301.000000" y1="-2424.871094" x2="1401.000000" y2="-2424.871094" stroke-width="10" stroke="black" />
<line x1="1401.000000" y1="-2424.871094" x2="1351.000000" y2="-2511.473633" stroke-width="10" stroke="black" />
<line x1="1351.000000" y1="-2511.473633" x2="1451.000000" y2="-2511.473633" stroke-width="10" stroke="black" />
<line x1="1451.000000" y1="-2511.473633" x2="1401.000000" y2="-2424.871094" stroke-width="10" stroke="black" />
<line x1="1401.000000" y1="-2424.871094" x2="1501.000000" y2="-2424.871094" stroke-width="10" stroke="black" />
<line x1="1501.000000" y1="-2424.871094" x2="1451.000000" y2="-2511.473633" stroke-width="10" stroke="black" />
<line x1="1451.000000" y1="-2511.473633" x2="1401.000000" y2="-2598.076172" stroke-width="10" stroke="black" />
<line x1="1401.000000" y1="-2598.076172" x2="1501.000000" y2="-2598.076172" stroke-width="10" stroke="black" />
<line x1="1501.000000" y1="-2598.076172" x2="1451.000000" y2="-2684.678711" stroke-width="10" stroke="black" />
<line x1="1451.000000" y1="-2684.678711" x2="1551.000000" y2="-2684.678711" stroke-width="10" stroke="black" />
<line x1="1551.000000" y1="-2684.678711" x2="1501.000000" y2="-2598.076172" stroke-width="10" stroke="black" />
<line x1="1501.000000" y1="-2598.076172" x2="1601.000000" y2="-2598.076172" stroke-width="10" stroke="black" />
<line x1="1601.000000" y1="-2598.076172" x2="1551.000000" y2="-2511.473633" stroke-width="10" stroke="black" />
<line x1="1551.000000" y1="-2511.473633" x2="1501.000000" y2="-2424.871094" stroke-width="10" stroke="black" />
<line x1="1501.000000" y1="-2424.871094" x2="1601.000000" y2="-2424.871094" stroke-width="10" stroke="black" />
<line x1="1601.000000" y1="-2424.871094" x2="1551.000000" y2="-2511.473633" stroke-width="10" stroke="black" />
<line x1="1551.000000" y1="-2511.473633" x2="1651.000000" y2="-2511.473633" stroke-width="10" stroke="black" />
<line x1="1651.000000" y1="-2511.473633" x2="1601.000000" y2="-2424.871094" stroke-width="10" stroke="black" />
<line x1="1601.000000" y1="-2424.871094" x2="1701.000000" y2="-2424.871094" stroke-width="10" stroke="black" />
<line x1="1701.000000" y1="-2424.871094" x2="1651.000000" y2="-2338.268555" stroke-width="10" stroke="black" />
<line x1="1651.000000" y1="-2338.268555" x2="1601.000000" y2="-2251.666016" stroke-width="10" stroke="black" />
<line x1="1601.000000" y1="-2251.666016" x2="1551.000000" y2="-2165.063477" stroke-width="10" stroke="black" />
<line x1="1551.000000" y1="-2165.063477" x2="1501.000000" y2="-2078.460938" stroke-width="10" stroke="black" />
<line x1="1501.000000" y1="-2078.460938" x2="1601.000000" y2="-2078.460938" stroke-width="10" stroke="black" />
<line x1="1601.000000" y1="-2078.460938" x2="1551.000000" y2="-2165.063477" stroke-width="10" stroke="black" />
<line x1="1551.000000" y1="-2165.063477" x2="1651.000000" y2="-2165.063477" stroke-width="10" stroke="black" />
<line x1="1651.000000" y1="-2165.063477" x2="1601.000000" y2="-2078.460938" stroke-width="10" stroke="black" />
<line x1="1601.000000" y1="-2078.460938" x2="1701.000000" y2="-2078.460938" stroke-width="10" stroke="black" />
<line x1="1701.000000" y1="-2078.460938" x2="1651.000000" y2="-2165.063477" stroke-width="10" stroke="black" />
<line x1="1651.000000" y1="-2165.063477" x2="1601.000000" y2="-2251.666016" stroke-width="10" stroke="black" />
<line x1="1601.000000" y1="-2251.666016" x2="1701.000000" y2="-2251.666016" stroke-width="10" stroke="black" />
<line x1="1701.000000" y1="-2251.666016" x2="1651.000000" y2="-2338.268555" stroke-width="10" stroke="black" />
<line x1="1651.000000" y1="-2338.268555" x2="1751.000000" y2="-2338.268555" stroke-width="10" stroke="black" />
<line x1="1751.000000" y1="-2338.268555" x2="1701.000000" y2="-2251.666016" stroke-width="10" stroke="black" />
<line x1="1701.000000" y1="-2251.666016" x2="1801.000000" y2="-2251.666016" stroke-width="10" stroke="black" />
<line x1="1801.000000" y1="-2251.666016" x2="1751.000000" y2="-2165.063477" stroke-width="10" stroke="black" />
<line x1="1751.000000" y1="-2165.063477" x2="1701.000000" y2="-2078.460938" stroke-width="10" stroke="black" />
<line x1="1701.000000" y1="-2078.460938" x2="1801.000000" y2="-2078.460938" stroke-width="10" stroke="black" />
<line x1="1801.000000" y1="-2078.460938" x2="1751.000000" y2="-2165.063477" stroke-width="10" stroke="black" />
<line x1="1751.000000" y1="-2165.063477" x2="1851.000000" y2="-2165.063477" stroke-width="10" stroke="black" />
<line x1="1851.000000" y1="-2165.063477" x2="1801.000000" y2="-2078.460938" stroke-width="10" stroke="black" />
<line x1="1801.000000" y1="-2078.460938" x2="1901.000000" y2="-2078.460938" stroke-width="10" stroke="black" />
<line x1="1901.000000" y1="-2078.460938" x2="1851.000000" y2="-1991.858398" stroke-width="10" stroke="black" />
<line x1="1851.000000" y1="-1991.858398" x2="1801.000000" y2="-1905.255859" stroke-width="10" stroke="black" />
<line x1="1801.000000" y1="-1905.255859" x2="1751.000000" y2="-1818.653320" stroke-width="10" stroke="black" />
<line x1="1751.000000" y1="-1818.653320" x2="1701.000000" y2="-1732.050781" stroke-width="10" stroke="black" />
<line x1="1701.000000" y1="-1732.050781" x2="1651.000000" y2="-1645.448242" stroke-width="10" stroke="black" />
<line x1="1651.000000" y1="-1645.448242" x2="1601.000000" y2="-1558.845703" stroke-width="10" stroke="black" />
<line x1="1601.000000" y1="-1558.845703" x2="1551.000000" y2="-1472.243164" stroke-width="10" stroke="black" />
<line x1="1551.000000" y1="-1472.243164" x2="1501.000000" y2="-1385.640625" stroke-width="10" stroke="black" />
<line x1="1501.000000" y1="-1385.640625" x2="1601.000000" y2="-1385.640625" stroke-width="10" stroke="black" />
<line x1="1601.000000" y1="-1385.640625" x2="1551.000000" y2="-1472.243164" stroke-width="10" stroke="black" />
<line x1="1551.000000" y1="-1472.243164" x2="1651.000000" y2="-1472.243164" stroke-width="10" stroke="black" />
<line x1="1651.000000" y1="-1472.243164" x2="1601.000000" y2="-1385.640625" stroke-width="10" stroke="black" />
<line x1="1601.000000" y1="-1385.640625" x2="1701.000000" y2="-1385.640625" stroke-width="10" stroke="black" />
<line x1="1701.000000" y1="-1385.640625" x2="1651.000000" y2="-1472.243164" stroke-width="10" stroke="black" />
<line x1="1651.000000" y1="-1472.243164" x2="1601.000000" y2="-1558.845703" stroke-width="10" stroke="black" />
<line x1="1601.000000" y1="-1558.845703" x2="1701.000000" y2="-1558.845703" stroke-width="10" stroke="black" />
<line x1="1701.000000" y1="-1558.845703" x2="1651.000000" y2="-1645.448242" stroke-width="10" stroke="black" />
<line x1="1651.000000" y1="-1645.448242" x2="1751.000000" y2="-1645.448242" stroke-width="10" stroke="black" />
<line x1="1751.000000" y1="-1645.448242" x2="1701.000000" y2="-1558.845703" stroke-width="10" stroke="black" />
<line x1="1701.000000" y1="-1558.845703" x2="1801.000000" y2="-1558.845703" stroke-width="10" stroke="black" />
<line x1="1801.000000" y1="-1558.845703" x2="1751.000000" y2="-1472.243164" stroke-width="10" stroke="black" />
<line x1="1751.000000" y1="-1472.243164" x2="1701.000000" y2="-1385.640625" stroke-width="10" stroke="black" />
<line x1="1701.000000" y1="-1385.640625" x2="1801.000000" y2="-1385.640625" stroke-width="10" stroke="black" />
<line x1="1801.000000" y1="-1385.640625" x2="1751.000000" y2="-1472.243164" stroke-width="10" stroke="black" />
<line x1="1751.000000" y1="-1472.243164" x2="1851.000000" y2="-1472.243164" stroke-width="10" stroke="black" />
<line x1="1851.000000" y1="-1472.243164" x2="1801.000000" y2="-1385.640625" stroke-width="10" stroke="black" />
<line x1="1801.000000" y1="-1385.640625" x2="1901.000000" y2="-1385.640625" stroke-width="10" stroke="black" />
<line x1="1901.000000" y1="-1385.640625" x2="1851.000000" y2="-1472.243164" stroke-width="10" stroke="black" />
<line x1="1851.000000" y1="-1472.243164" x2="1801.000000" y2="-1558.845703" stroke-width="10" stroke="black" />
<line x1="1801.000000" y1="-1558.845703" x2="1751.000000" y2="-1645.448242" stroke-width="10" stroke="black" />
<line x1="1751.000000" y1="-1645.448242" x2="1701.000000" y2="-1732.050781" stroke-width="10" stroke="black" />
<line x1="1701.000000" y1="-1732.050781" x2="1801.000000" y2="-1732.050781" stroke-width="10" stroke="black" />
<line x1="1801.000000" y1="-1732.050781" x2="1751.000000" y2="-1818.653320" stroke-width="10" stroke="black" />
<line x1="1751.000000" y1="-1818.653320" x2="1851.000000" y2="-1818.653320" stroke-width="10" stroke="black" />
<line x1="1851.000000" y1="-1818.653320" x2="1801.000000" y2="-1732.050781" stroke-width="10" stroke="black" />
<line x1="1801.000000" y1="-1732.050781" x2="1901.000000" y2="-1732.050781" stroke-width="10" stroke="black" />
<line x1="1901.000000" y1="-1732.050781" x2="1851.000000" y2="-1818.653320" stroke-width="10" stroke="black" />
<line x1="1851.000000" y1="-1818.653320" x2="1801.000000" y2="-1905.255859" stroke-width="10" stroke="black" />
<line x1="1801.000000" y1="-1905.255859" x2="1901.000000" y2="-1905.255859" stroke-width="10" stroke="black" />
<line x1="1901.000000" y1="-1905.255859" x2="1851.000000" y2="-1991.858398" stroke-width="10" stroke="black" />
<line x1="1851.000000" y1="-1991.858398" x2="1951.000000" y2="-1991.858398" stroke-width="10" stroke="black" />
<line x1="1951.000000" y1="-1991.858398" x2="1901.000000" y2="-1905.255859" stroke-width="10" stroke="black" />
<line x1="1901.000000" y1="-1905.255859" x2="2001.000000" y2="-1905.255859" stroke-width="10" stroke="black" />
<line x1="2001.000000" y1="-1905.255859" x2="1951.000000" y2="-1818.653320" stroke-width="10" stroke="black" />
<line x1="1951.000000" y1="-1818.653320" x2="1901.000000" y2="-1732.050781" stroke-width="10" stroke="black" />
<line x1="1901.000000" y1="-1732.050781" x2="2001.000000" y2="-1732.050781" stroke-width="10" stroke="black" />
<line x1="2001.000000" y1="-1732.050781" x2="1951.000000" y2="-1818.653320" stroke-width="10" stroke="black" />
<line x1="1951.000000" y1="-1818.653320" x2="2051.000000" y2="-1818.653320" stroke-width="10" stroke="black" />
<line x1="2051.000000" y1="-1818.653320" x2="2001.000000" y2="-1732.050781" stroke-width="10" stroke="black" />
<line x1="2001.000000" y1="-1732.050781" x2="2101.000000" y2="-1732.050781" stroke-width="10" stroke="black" />
<line x1="2101.000000" y1="-1732.050781" x2="2051.000000" y2="-1645.448242" stroke-width="10" stroke="black" />
<line x1="2051.000000" y1="-1645.448242" x2="2001.000000" y2="-1558.845703" stroke-width="10" stroke="black" />
<line x1="2001.000000" y1="-1558.845703" x2="1951.000000" y2="-1472.243164" stroke-width="10" stroke="black" />
<line x1="1951.000000" y1="-1472.243164" x2="1901.000000" y2="-1385.640625" stroke-width="10" stroke="black" />
<line x1="1901.000000" y1="-1385.640625" x2="2001.000000" y2="-1385.640625" stroke-width="10" stroke="black" />
<line x1="2001.000000" y1="-1385.640625" x2="1951.000000" y2="-1472.243164" stroke-width="10" stroke="black" />
<line x1="1951.000000" y1="-1472.243164" x2="2051.000000" y2="-1472.243164" stroke-width="10" stroke="black" />
<line x1="2051.000000" y1="-1472.243164" x2="2001.000000" y2="-1385.640625" stroke-width="10" stroke="black" />
<line x1="2001.000000" y1="-1385.640625" x2="2101.000000" y2="-1385.640625" stroke-width="10" stroke="black" />
<line x1="2101.000000" y1="-1385.640625" x2="2051.000000" y2="-1472.243164" stroke-width="10" stroke="black" />
<line x1="2051.000000" y1="-1472.243164" x2="2001.000000" y2="-1558.845703" stroke-width="10" stroke="black" />
<line x1="2001.000000" y1="-1558.845703" x2="2101.000000" y2="-1558.845703" stroke-width="10" stroke="black" />
<line x1="2101.000000" y1="-1558.845703" x2="2051.000000" y2="-1645.448242" stroke-width="10" stroke="black" />
<line x1="2051.000000" y1="-1645.448242" x2="2151.000000" y2="-1645.448242" stroke-width="10" stroke="black" />
<line x1="2151.000000" y1="-1645.448242" x2="2101.000000" y2="-1558.845703" stroke-width="10" stroke="black" />
<line x1="2101.000000" y1="-1558.845703" x2="2201.000000" y2="-1558.845703" stroke-width="10" stroke="black" />
<line x1="2201.000000" y1="-1558.845703" x2="2151.000000" y2="-1472.243164" stroke-width="10" stroke="black" />
<line x1="2151.000000" y1="-1472.243164" x2="2101.000000" y2="-1385.640625" stroke-width="10" stroke="black" />
<line x1="2101.000000" y1="-1385.640625" x2="2201.000000" y2="-1385.640625" stroke-width="10" stroke="black" />
<line x1="2201.000000" y1="-1385.640625" x2="2151.000000" y2="-1472.243164" stroke-width="10" stroke="black" />
<line x1="2151.000000" y1="-1472.243164" x2="2251.000000" y2="-1472.243164" stroke-width="10" stroke="black" />
<line x1="2251.000000" y1="-1472.243164" x2="2201.000000" y2="-1385.640625" stroke-width="10" stroke="black" />
<line x1="2201.000000" y1="-1385.640625" x2="2301.000000" y2="-1385.640625" stroke-width="10" stroke="black" />
<line x1="2301.000000" y1="-1385.640625" x2="2251.000000" y2="-1299.038086" stroke-width="10" stroke="black" />
<line x1="2251.000000" y1="-1299.038086" x2="2201.000000" y2="-1212.435547" stroke-width="10" stroke="black" />
<line x1="2201.000000" y1="-1212.435547" x2="2151.000000" y2="-1125.833008" stroke-width="10" stroke="black" />
<line x1="2151.000000" y1="-1125.833008" x2="2101.000000" y2="-1039.230469" stroke-width="10" stroke="black" />
<line x1="2101.000000" y1="-1039.230469" x2="2051.000000" y2="-952.627930" stroke-width="10" stroke="black" />
<line x1="2051.000000" y1="-952.627930" x2="2001.000000" y2="-866.025391" stroke-width="10" stroke="black" />
<line x1="2001.000000" y1="-866.025391" x2="1951.000000" y2="-779.422852" stroke-width="10" stroke="black" />
<line x1="1951.000000" y1="-779.422852" x2="1901.000000" y2="-692.820313" stroke-width="10" stroke="black" />
<line x1="1901.000000" y1="-692.820313" x2="1851.000000" y2="-606.217773" stroke-width="10" stroke="black" />
<line x1="1851.000000" y1="-606.217773" x2="1801.000000" y2="-519.615234" stroke-width="10" stroke="black" />
<line x1="1801.000000" y1="-519.615234" x2="1751.000000" y2="-433.012695" stroke-width="10" stroke="black" />
<line x1="1751.000000" y1="-433.012695" x2="1701.000000" y2="-346.410156" stroke-width="10" stroke="black" />
<line x1="1701.000000" y1="-346.410156" x2="1651.000000" y2="-259.807617" stroke-width="10" stroke="black" />
<line x1="1651.000000" y1="-259.807617" x2="1601.000000" y2="-173.205078" stroke-width="10" stroke="black" />
<line x1="1601.000000" y1="-173.205078" x2="1551.000000" y2="-86.602539" stroke-width="10" stroke="black" />
<line x1="1551.000000" y1="-86.602539" x2="1501.000000" y2="-0.000000" stroke-width="10" stroke="black" />
<line x1="1501.000000" y1="-0.000000" x2="1601.000000" y2="-0.000000" stroke-width="10" stroke="black" />
<line x1="1601.000000" y1="-0.000000" x2="1551.000000" y2="-86.602539" stroke-width="10" stroke="black" />
<line x1="1551.000000" y1="-86.602539" x2="1651.000000" y2="-86.602539" stroke-width="10" stroke="black" />
<line x1="1651.000000" y1="-86.602539" x2="1601.000000" y2="-0.000000" stroke-width="10" stroke="black" />
<line x1="1601.000000" y1="-0.000000" x2="1701.000000" y2="-0.000000" stroke-width="10" stroke="black" />
<line x1="1701.000000" y1="-0.000000" x2="1651.000000" y2="-86.602539" stroke-width="10" stroke="black" />
<line x1="1651.000000" y1="-86.602539" x2="1601.000000" y2="-173.205078" stroke-width="10" stroke="black" />
<line x1="1601.000000" y1="-173.205078" x2="1701.000000" y2="-173.205078" stroke-width="10" stroke="black" />
<line x1="1701.000000" y1="-173.205078" x2="1651.000000" y2="-259.807617" stroke-width="10" stroke="black" />
<line x1="1651.000000" y1="-259.807617" x2="1751.000000" y2="-259.807617" stroke-width="10" stroke="black" />
<line x1="1751.000000" y1="-259.807617" x2="1701.000000" y2="-173.205078" stroke-width="10" stroke="black" />
<line x1="1701.000000" y1="-173.205078" x2="1801.000000" y2="-173.205078" stroke-width="10" stroke="black" />
<line x1="1801.000000" y1="-173.205078" x2="1751.000000" y2="-86.602539" stroke-width="10" stroke="black" />
<line x1="1751.000000" y1="-86.602539" x2="1701.000000" y2="-0.000000" stroke-width="10" stroke="black" />
<line x1="1701.000000" y1="-0.000000" x2="1801.000000" y2="-0.000000" stroke-width="10" stroke="black" />
<line x1="1801.000000" y1="-0.000000" x2="1751.000000" y2="-86.602539" stroke-width="10" stroke="black" />
<line x1="1751.000000" y1="-86.602539" x2="1851.000000" y2="-86.602539" stroke-width="10" stroke="black" />
<line x1="1851.000000" y1="-86.602539" x2="1801.000000" y2="-0.000000" stroke-width="10" stroke="black" />
<line x1="1801.000000" y1="-0.000000" x2="1901.000000" y2="-0.000000" stroke-width="10" stroke="black" />
<line x1="1901.000000" y1="-0.000000" x2="1851.000000" y2="-86.602539" stroke-width="10" stroke="black" />
<line x1="1851.000000" y1="-86.602539" x2="1801.000000" y2="-173.205078" stroke-width="10" stroke="black" />
<line x1="1801.000000" y1="-173.205078" x2="1751.000000" y2="-259.807617" stroke-width="10" stroke="black" />
<line x1="1751.000000" y1="-259.807617" x2="1701.000000" y2="-346.410156" stroke-width="10" stroke="black" />
<line x1="1701.000000" y1="-346.410156" x2="1801.000000" y2="-346.410156" stroke-width="10" stroke="black" />
<line x1="1801.000000" y1="-346.410156" x2="1751.000000" y2="-433.012695" stroke-width="10" stroke="black" />
<line x1="1751.000000" y1="-433.012695" x2="1851.000000" y2="-433.012695" stroke-width="10" stroke="black" />
<line x1="1851.000000" y1="-433.012695" x2="1801.000000" y2="-346.410156" stroke-width="10" stroke="black" />
<line x1="1801.000000" y1="-346.410156" x2="1901.000000" y2="-346.410156" stroke-width="10" stroke="black" />
<line x1="1901.000000" y1="-346.410156" x2="1851.000000" y2="-433.012695" stroke-width="10" stroke="black" />
<line x1="1851.000000" y1="-433.012695" x2="1801.000000" y2="-519.615234" stroke-width="10" stroke="black" />
<line x1="1801.000000" y1="-519.615234" x2="1901.000000" y2="-519.615234" stroke-width="10" stroke="black" />
<line x1="1901.000000" y1="-519.615234" x2="1851.000000" y2="-606.217773" stroke-width="10" stroke="black" />
<line x1="1851.000000" y1="-606.217773" x2="1951.000000" y2="-606.217773" stroke-width="10" stroke="black" />
<line x1="1951.000000" y1="-606.217773" x2="1901.000000" y2="-519.615234" stroke-width="10" stroke="black" />
<line x1="1901.000000" y1="-519.615234" x2="2001.000000" y2="-519.615234" stroke-width="10" stroke="black" />
<line x1="2001.000000" y1="-519.615234" x2="1951.000000" y2="-433.012695" stroke-width="10" stroke="black" />
<line x1="1951.000000" y1="-433.012695" x2="1901.000000" y2="-346.410156" stroke-width="10" stroke="black" />
<line x1="1901.000000" y1="-346.410156" x2="2001.000000" y2="-346.410156" stroke-width="10" stroke="black" />
<line x1="2001.000000" y1="-346.410156" x2="1951.000000" y2="-433.012695" stroke-width="10" stroke="black" />
<line x1="1951.000000" y1="-433.012695" x2="2051.000000" y2="-433.012695" stroke-width="10" stroke="black" />
<line x1="2051.000000" y1="-433.012695" x2="2001.000000" y2="-346.410156" stroke-width="10" stroke="black" />
<line x1="2001.000000" y1="-346.410156" x2="2101.000000" y2="-346.410156" stroke-width="10" stroke="black" />
<line x1="2101.000000" y1="-346.410156" x2="2051.000000" y2="-259.807617" stroke-width="10" stroke="black" />
<line x1="2051.000000" y1="-259.807617" x2="2001.000000" y2="-173.205078" stroke-width="10" stroke="black" />
<line x1="2001.000000" y1="-173.205078" x2="1951.000000" y2="-86.602539" stroke-width="10" stroke="black" />
<line x1="1951.000000" y1="-86.602539" x2="1901.000000" y2="-0.000000" stroke-width="10" stroke="black" />
<line x1="1901.000000" y1="-0.000000" x2="2001.000000" y2="-0.000000" stroke-width="10" stroke="black" />
<line x1="2001.000000" y1="-0.000000" x2="1951.000000" y2="-86.602539" stroke-width="10" stroke="black" />
<line x1="1951.000000" y1="-86.602539" x2="2051.000000" y2="-86.602539" stroke-width="10" stroke="black" />
<line x1="2051.000000" y1="-86.602539" x2="2001.000000" y2="-0.000000" stroke-width="10" stroke="black" />
<line x1="2001.000000" y1="-0.000000" x2="2101.000000" y2="-0.000000" stroke-width="10" stroke="black" />
<line x1="2101.000000" y1="-0.000000" x2="2051.000000" y2="-86.602539" stroke-width="10" stroke="black" />
<line x1="2051.000000" y1="-86.602539" x2="2001.000000" y2="-173.205078" stroke-width="10" stroke="black" />
<line x1="2001.000000" y1="-173.205078" x2="2101.000000" y2="-173.205078" stroke-width="10" stroke="black" />
<line x1="2101.000000" y1="-173.205078" x2="2051.000000" y2="-259.807617" stroke-width="10" stroke="black" />
<line x1="2051.000000" y1="-259.807617" x2="2151.000000" y2="-259.807617" stroke-width="10" stroke="black" />
<line x1="2151.000000" y1="-259.807617" x2="2101.000000" y2="-173.205078" stroke-width="10" stroke="black" />
<line x1="2101.000000" y1="-173.205078" x2="2201.000000" y2="-173.205078" stroke-width="10" stroke="black" />
<line x1="2201.000000" y1="-173.205078" x2="2151.000000" y2="-86.602539" stroke-width="10" stroke="black" />
<line x1="2151.000000" y1="-86.602539" x2="2101.000000" y2="-0.000000" stroke-width="10" stroke="black" />
<line x1="2101.000000" y1="-0.000000" x2="2201.000000" y2="-0.000000" stroke-width="10" stroke="black" />
<line x1="2201.000000" y1="-0.000000" x2="2151.000000" y2="-86.602539" stroke-width="10" stroke="black" />
<line x1="2151.000000" y1="-86.602539" x2="2251.000000" y2="-86.602539" stroke-width="10" stroke="black" />
<line x1="2251.000000" y1="-86.602539" x2="2201.000000" y2="-0.000000" stroke-width="10" stroke="black" />
<line x1="2201.000000" y1="-0.000000" x2="2301.000000" y2="-0.000000" stroke-width="10" stroke="black" />
<line x1="2301.000000" y1="-0.000000" x2="2251.000000" y2="-86.602539" stroke-width="10" stroke="black" />
<line x1="2251.000000" y1="-86.602539" x2="2201.000000" y2="-173.205078" stroke-width="10" stroke="black" />
<line x1="2201.000000" y1="-173.205078" x2="2151.000000" y2="-259.807617" stroke-width="10" stroke="black" />
<line x1="2151.000000" y1="-259.807617" x2="2101.000000" y2="-346.410156" stroke-width="10" stroke="black" />
<line x1="2101.000000" y1="-346.410156" x2="2051.000000" y2="-433.012695" stroke-width="10" stroke="black" />
<line x1="2051.000000" y1="-433.012695" x2="2001.000000" y2="-519.615234" stroke-width="10" stroke="black" />
<line x1="2001.000000" y1="-519.615234" x2="1951.000000" y2="-606.217773" stroke-width="10" stroke="black" />
<line x1="1951.000000" y1="-606.217773" x2="1901.000000" y2="-692.820313" stroke-width="10" stroke="black" />
<line x1="1901.000000" y1="-692.820313" x2="2001.000000" y2="-692.820313" stroke-width="10" stroke="black" />
<line x1="2001.000000" y1="-692.820313" x2="1951.000000" y2="-779.422852" stroke-width="10" stroke="black" />
<line x1="1951.000000" y1="-779.422852" x2="2051.000000" y2="-779.422852" stroke-width="10" stroke="black" />
<line x1="2051.000000" y1="-779.422852" x2="2001.000000" y2="-692.820313" stroke-width="10" stroke="black" />
<line x1="2001.000000" y1="-692.820313" x2="2101.000000" y2="-692.820313" stroke-width="10" stroke="black" />
<line x1="2101.000000" y1="-692.820313" x2="2051.000000" y2="-779.422852" stroke-width="10" stroke="black" />
<line x1="2051.000000" y1="-779.422852" x2="2001.000000" y2="-866.025391" stroke-width="10" stroke="black" />
<line x1="2001.000000" y1="-866.025391" x2="2101.000000" y2="-866.025391" stroke-width="10" stroke="black" />
<line x1="2101.000000" y1="-866.025391" x2="2051.000000" y2="-952.627930" stroke-width="10" stroke="black" />
<line x1="2051.000000" y1="-952.627930" x2="2151.000000" y2="-952.627930" stroke-width="10" stroke="black" />
<line x1="2151.000000" y1="-952.627930" x2="2101.000000" y2="-866.025391" stroke-width="10" stroke="black" />
<line x1="2101.000000" y1="-866.025391" x2="2201.000000" y2="-866.025391" stroke-width="10" stroke="black" />
<line x1="2201.000000" y1="-866.025391" x2="2151.000000" y2="-779.422852" stroke-width="10" stroke="black" />
<line x1="2151.000000" y1="-779.422852" x2="2101.000000" y2="-692.820313" stroke-width="10" stroke="black" />
<line x1="2101.000000" y1="-692.820313" x2="2201.000000" y2="-692.820313" stroke-width="10" stroke="black" />
<line x1="2201.000000" y1="-692.820313" x2="2151.000000" y2="-779.422852" stroke-width="10" stroke="black" />
<line x1="2151.000000" y1="-779.422852" x2="2251.000000" y2="-779.422852" stroke-width="10" stroke="black" />
<line x1="2251.000000" y1="-779.422852" x2="2201.000000" y2="-692.820313" stroke-width="10" stroke="black" />
<line x1="2201.000000" y1="-692.820313" x2="2301.000000" y2="-692.820313" stroke-width="10" stroke="black" />
<line x1="2301.000000" y1="-692.820313" x2="2251.000000" y2="-779.422852" stroke-width="10" stroke="black" />
<line x1="2251.000000" y1="-779.422852" x2="2201.000000" y2="-866.025391" stroke-width="10" stroke="black" />
<line x1="2201.000000" y1="-866.025391" x2="2151.000000" y2="-952.627930" stroke-width="10" stroke="black" />
<line x1="2151.000000" y1="-952.627930" x2="2101.000000" y2="-1039.230469" stroke-width="10" stroke="black" />
<line x1="2101.000000" y1="-1039.230469" x2="2201.000000" y2="-1039.230469" stroke-width="10" stroke="black" />
<line x1="2201.000000" y1="-1039.230469" x2="2151.000000" y2="-1125.833008" stroke-width="10" stroke="black" />
<line x1="2151.000000" y1="-1125.833008" x2="2251.000000" y2="-1125.833008" stroke-width="10" stroke="black" />
<line x1="2251.000000" y1="-1125.833008" x2="2201.000000" y2="-1039.230469" stroke-width="10" stroke="black" />
<line x1="2201.000000" y1="-1039.230469" x2="2301.000000" y2="-1039.230469" stroke-width="10" stroke="black" />
<line x1="2301.000000" y1="-1039.230469" x2="2251.000000" y2="-1125.833008" stroke-width="10" stroke="black" />
<line x1="2251.000000" y1="-1125.833008" x2="2201.000000" y2="-1212.435547" stroke-width="10" stroke="black" />
<line x1="2201.000000" y1="-1212.435547" x2="2301.000000" y2="-1212.435547" stroke-width="10" stroke="black" />
<line x1="2301.000000" y1="-1212.435547" x2="2251.000000" y2="-1299.038086" stroke-width="10" stroke="black" />
<line x1="2251.000000" y1="-1299.038086" x2="2351.000000" y2="-1299.038086" stroke-width="10" stroke="black" />
<line x1="2351.000000" y1="-1299.038086" x2="2301.000000" y2="-1212.435547" stroke-width="10" stroke="black" />
<line x1="2301.000000" y1="-1212.435547" x2="2401.000000" y2="-1212.435547" stroke-width="10" stroke="black" />
<line x1="2401.000000" y1="-1212.435547" x2="2351.000000" y2="-1125.833008" stroke-width="10" stroke="black" />
<line x1="2351.000000" y1="-1125.833008" x2="2301.000000" y2="-1039.230469" stroke-width="10" stroke="black" />
<line x1="2301.000000" y1="-1039.230469" x2="2401.000000" y2="-1039.230469" stroke-width="10" stroke="black" />
<line x1="2401.000000" y1="-1039.230469" x2="2351.000000" y2="-1125.833008" stroke-width="10" stroke="black" />
<line x1="2351.000000" y1="-1125.833008" x2="2451.000000" y2="-1125.833008" stroke-width="10" stroke="black" />
<line x1="2451.000000" y1="-1125.833008" x2="2401.000000" y2="-1039.230469" stroke-width="10" stroke="black" />
<line x1="2401.000000" y1="-1039.230469" x2="2501.000000" y2="-1039.230469" stroke-width="10" stroke="black" />
<line x1="2501.000000" y1="-1039.230469" x2="2451.000000" y2="-952.627930" stroke-width="10" stroke="black" />
<line x1="2451.000000" y1="-952.627930" x2="2401.000000" y2="-866.025391" stroke-width="10" stroke="black" />
<line x1="2401.000000" y1="-866.025391" x2="2351.000000" y2="-779.422852" stroke-width="10" stroke="black" />
<line x1="2351.000000" y1="-779.422852" x2="2301.000000" y2="-692.820313" stroke-width="10" stroke="black" />
<line x1="2301.000000" y1="-692.820313" x2="2401.000000" y2="-692.820313" stroke-width="10" stroke="black" />
<line x1="2401.000000" y1="-692.820313" x2="2351.000000" y2="-779.422852" stroke-width="10" stroke="black" />
<line x1="2351.000000" y1="-779.422852" x2="2451.000000" y2="-779.422852" stroke-width="10" stroke="black" />
<line x1="2451.000000" y1="-779.422852" x2="2401.000000" y2="-692.820313" stroke-width="10" stroke="black" />
<line x1="2401.000000" y1="-692.820313" x2="2501.000000" y2="-692.820313" stroke-width="10" stroke="black" />
<line x1="2501.000000" y1="-692.820313" x2="2451.000000" y2="-779.422852" stroke-width="10" stroke="black" />
<line x1="2451.000000" y1="-779.422852" x2="2401.000000" y2="-866.025391" stroke-width="10" stroke="black" />
<line x1="2401.000000" y1="-866.025391" x2="2501.000000" y2="-866.025391" stroke-width="10" stroke="black" />
<line x1="2501.000000" y1="-866.025391" x2="2451.000000" y2="-952.627930" stroke-width="10" stroke="black" />
<line x1="2451.000000" y1="-952.627930" x2="2551.000000" y2="-952.627930" stroke-width="10" stroke="black" />
<line x1="2551.000000" y1="-952.627930" x2="2501.000000" y2="-866.025391" stroke-width="10" stroke="black" />
<line x1="2501.000000" y1="-866.025391" x2="2601.000000" y2="-866.025391" stroke-width="10" stroke="black" />
<line x1="2601.000000" y1="-866.025391" x2="2551.000000" y2="-779.422852" stroke-width="10" stroke="black" />
<line x1="2551.000000" y1="-779.422852" x2="2501.000000" y2="-692.820313" stroke-width="10" stroke="black" />
<line x1="2501.000000" y1="-692.820313" x2="2601.000000" y2="-692.820313" stroke-width="10" stroke="black" />
<line x1="2601.000000" y1="-692.820313" x2="2551.000000" y2="-779.422852" stroke-width="10" stroke="black" />
<line x1="2551.000000" y1="-779.422852" x2="2651.000000" y2="-779.422852" stroke-width="10" stroke="black" />
<line x1="2651.000000" y1="-779.422852" x2="2601.000000" y2="-692.820313" stroke-width="10" stroke="black" />
<line x1="2601.000000" y1="-692.820313" x2="2701.000000" y2="-692.820313" stroke-width="10" stroke="black" />
<line x1="2701.000000" y1="-692.820313" x2="2651.000000" y2="-606.217773" stroke-width="10" stroke="black" />
<line x1="2651.000000" y1="-606.217773" x2="2601.000000" y2="-519.615234" stroke-width="10" stroke="black" />
<line x1="2601.000000" y1="-519.615234" x2="2551.000000" y2="-433.012695" stroke-width="10" stroke="black" />
<line x1="2551.000000" y1="-433.012695" x2="2501.000000" y2="-346.410156" stroke-width="10" stroke="black" />
<line x1="2501.000000" y1="-346.410156" x2="2451.000000" y2="-259.807617" stroke-width="10" stroke="black" />
<line x1="2451.000000" y1="-259.807617" x2="2401.000000" y2="-173.205078" stroke-width="10" stroke="black" />
<line x1="2401.000000" y1="-173.205078" x2="2351.000000" y2="-86.602539" stroke-width="10" stroke="black" />
<line x1="2351.000000" y1="-86.602539" x2="2301.000000" y2="-0.000000" stroke-width="10" stroke="black" />
<line x1="2301.000000" y1="-0.000000" x2="2401.000000" y2="-0.000000" stroke-width="10" stroke="black" />
<line x1="2401.000000" y1="-0.000000" x2="2351.000000" y2="-86.602539" stroke-width="10" stroke="black" />
<line x1="2351.000000" y1="-86.602539" x2="2451.000000" y2="-86.602539" stroke-width="10" stroke="black" />
<line x1="2451.000000" y1="-86.602539" x2="2401.000000" y2="-0.000000" stroke-width="10" stroke="black" />
<line x1="2401.000000" y1="-0.000000" x2="2501.000000" y2="-0.000000" stroke-width="10" stroke="black" />
<line x1="2501.000000" y1="-0.000000" x2="2451.000000" y2="-86.602539" stroke-width="10" stroke="black" />
<line x1="2451.000000" y1="-86.602539" x2="2401.000000" y2="-173.205078" stroke-width="10" stroke="black" />
<line x1="2401.000000" y1="-173.205078" x2="2501.000000" y2="-173.205078" stroke-width="10" stroke="black" />
<line x1="2501.000000" y1="-173.205078" x2="2451.000000" y2="-259.807617" stroke-width="10" stroke="black" />
<line x1="2451.000000" y1="-259.807617" x2="2551.000000" y2="-259.807617" stroke-width="10" stroke="black" />
<line x1="2551.000000" y1="-259.807617" x2="2501.000000" y2="-173.205078" stroke-width="10" stroke="black" />
<line x1="2501.000000" y1="-173.205078" x2="2601.000000" y2="-173.205078" stroke-width="10" stroke="black" />
<line x1="2601.000000" y1="-173.205078" x2="2551.000000" y2="-86.602539" stroke-width="10" stroke="black" />
<line x1="2551.000000" y1="-86.602539" x2="2501.000000" y2="-0.000000" stroke-width="10" stroke="black" />
<line x1="2501.000000" y1="-0.000000" x2="2601.000000" y2="-0.000000" stroke-width="10" stroke="black" />
<line x1="2601.000000" y1="-0.000000" x2="2551.000000" y2="-86.602539" stroke-width="10" stroke="black" />
<line x1="2551.000000" y1="-86.602539" x2="2651.000000" y2="-86.602539" stroke-width="10" stroke="black" />
<line x1="2651.000000" y1="-86.602539" x2="2601.000000" y2="-0.000000" stroke-width="10" stroke="black" />
<line x1="2601.000000" y1="-0.000000" x2="2701.000000" y2="-0.000000" stroke-width="10" stroke="black" />
<line x1="2701.000000" y1="-0.000000" x2="2651.000000" y2="-86.602539" stroke-width="10" stroke="black" />
<line x1="2651.000000" y1="-86.602539" x2="2601.000000" y2="-173.205078" stroke-width="10" stroke="black" />
<line x1="2601.000000" y1="-173.205078" x2="2551.000000" y2="-259.807617" stroke-width="10" stroke="black" />
<line x1="2551.000000" y1="-259.807617" x2="2501.000000" y2="-346.410156" stroke-width="10" stroke="black" />
<line x1="2501.000000" y1="-346.410156" x2="2601.000000" y2="-346.410156" stroke-width="10" stroke="black" />
<line x1="2601.000000" y1="-346.410156" x2="2551.000000" y2="-433.012695" stroke-width="10" stroke="black" />
<line x1="2551.000000" y1="-433.012695" x2="2651.000000" y2="-433.012695" stroke-width="10" stroke="black" />
<line x1="2651.000000" y1="-433.012695" x2="2601.000000" y2="-346.410156" stroke-width="10" stroke="black" />
<line x1="2601.000000" y1="-346.410156" x2="2701.000000" y2="-346.410156" stroke-width="10" stroke="black" />
<line x1="2701.000000" y1="-346.410156" x2="2651.000000" y2="-433.012695" stroke-width="10" stroke="black" />
<line x1="2651.000000" y1="-433.012695" x2="2601.000000" y2="-519.615234" stroke-width="10" stroke="black" />
<line x1="2601.000000" y1="-519.615234" x2="2701.000000" y2="-519.615234" stroke-width="10" stroke="black" />
<line x1="2701.000000" y1="-519.615234" x2="2651.000000" y2="-606.217773" stroke-width="10" stroke="black" />
<line x1="2651.000000" y1="-606.217773" x2="2751.000000" y2="-606.217773" stroke-width="10" stroke="black" />
<line x1="2751.000000" y1="-606.217773" x2="2701.000000" y2="-519.615234" stroke-width="10" stroke="black" />
<line x1="2701.000000" y1="-519.615234" x2="2801.000000" y2="-519.615234" stroke-width="10" stroke="black" />
<line x1="2801.000000" y1="-519.615234" x2="2751.000000" y2="-433.012695" stroke-width="10" stroke="black" />
<line x1="2751.000000" y1="-433.012695" x2="2701.000000" y2="-346.410156" stroke-width="10" stroke="black" />
<line x1="2701.000000" y1="-346.410156" x2="2801.000000" y2="-346.410156" stroke-width="10" stroke="black" />
<line x1="2801.000000" y1="-346.410156" x2="2751.000000" y2="-433.012695" stroke-width="10" stroke="black" />
<line x1="2751.000000" y1="-433.012695" x2="2851.000000" y2="-433.012695" stroke-width="10" stroke="black" />
<line x1="2851.000000" y1="-433.012695" x2="2801.000000" y2="-346.410156" stroke-width="10" stroke="black" />
<line x1="2801.000000" y1="-346.410156" x2="2901.000000" y2="-346.410156" stroke-width="10" stroke="black" />
<line x1="2901.000000" y1="-346.410156" x2="2851.000000" y2="-259.807617" stroke-width="10" stroke="black" />
<line x1="2851.000000" y1="-259.807617" x2="2801.000000" y2="-173.205078" stroke-width="10" stroke="black" />
<line x1="2801.000000" y1="-173.205078" x2="2751.000000" y2="-86.602539" stroke-width="10" stroke="black" />
<line x1="2751.000000" y1="-86.602539" x2="2701.000000" y2="-0.000000" stroke-width="10" stroke="black" />
<line x1="2701.000000" y1="-0.000000" x2="2801.000000" y2="-0.000000" stroke-width="10" stroke="black" />
<line x1="2801.000000" y1="-0.000000" x2="2751.000000" y2="-86.602539" stroke-width="10" stroke="black" />
<line x1="2751.000000" y1="-86.602539" x2="2851.000000" y2="-86.602539" stroke-width="10" stroke="black" />
<line x1="2851.000000" y1="-86.602539" x2="2801.000000" y2="-0.000000" stroke-width="10" stroke="black" />
<line x1="2801.000000" y1="-0.000000" x2="2901.000000" y2="-0.000000" stroke-width="10" stroke="black" />
<line x1="2901.000000" y1="-0.000000" x2="2851.000000" y2="-86.602539" stroke-width="10" stroke="black" />
<line x1="2851.000000" y1="-86.602539" x2="2801.000000" y2="-173.205078" stroke-width="10" stroke="black" />
<line x1="2801.000000" y1="-173.205078" x2="2901.000000" y2="-173.205078" stroke-width="10" stroke="black" />
<line x1="2901.000000" y1="-173.205078" x2="2851.000000" y2="-259.807617" stroke-width="10" stroke="black" />
<line x1="2851.000000" y1="-259.807617" x2="2951.000000" y2="-259.807617" stroke-width="10" stroke="black" />
<line x1="2951.000000" y1="-259.807617" x2="2901.000000" y2="-173.205078" stroke-width="10" stroke="black" />
<line x1="2901.000000" y1="-173.205078" x2="3001.000000" y2="-173.205078" stroke-width="10" stroke="black" />
<line x1="3001.000000" y1="-173.205078" x2="2951.000000" y2="-86.602539" stroke-width="10" stroke="black" />
<line x1="2951.000000" y1="-86.602539" x2="2901.000000" y2="-0.000000" stroke-width="10" stroke="black" />
<line x1="2901.000000" y1="-0.000000" x2="3001.000000" y2="-0.000000" stroke-width="10" stroke="black" />
<line x1="3001.000000" y1="-0.000000" x2="2951.000000" y2="-86.602539" stroke-width="10" stroke="black" />
<line x1="2951.000000" y1="-86.602539" x2="3051.000000" y2="-86.602539" stroke-width="10" stroke="black" />
<line x1="3051.000000" y1="-86.602539" x2="3001.000000" y2="-0.000000" stroke-width="10" stroke="black" />
<line x1="3001.000000" y1="-0.000000" x2="3101.000000" y2="-0.000000" stroke-width="10" stroke="black" />
<line x1="3101.000000" y1="-0.000000" x2="3051.000000" y2="-86.602539" stroke-width="10" stroke="black" />
<line x1="3051.000000" y1="-86.602539" x2="3001.000000" y2="-173.205078" stroke-width="10" stroke="black" />
<line x1="3001.000000" y1="-173.205078" x2="2951.000000" y2="-259.807617" stroke-width="10" stroke="black" />
<line x1="2951.000000" y1="-259.807617" x2="2901.000000" y2="-346.410156" stroke-width="10" stroke="black" />
<line x1="2901.000000" y1="-346.410156" x2="2851.000000" y2="-433.012695" stroke-width="10" stroke="black" />
<line x1="2851.000000" y1="-433.012695" x2="2801.000000" y2="-519.615234" stroke-width="10" stroke="black" />
<line x1="2801.000000" y1="-519.615234" x2="2751.000000" y2="-606.217773" stroke-width="10" stroke="black" />
<line x1="2751.000000" y1="-606.217773" x2="2701.000000" y2="-692.820313" stroke-width="10" stroke="black" />
<line x1="2701.000000" y1="-692.820313" x2="2651.000000" y2="-779.422852" stroke-width="10" stroke="black" />
<line x1="2651.000000" y1="-779.422852" x2="2601.000000" y2="-866.025391" stroke-width="10" stroke="black" />
<line x1="2601.000000" y1="-866.025391" x2="2551.000000" y2="-952.627930" stroke-width="10" stroke="black" />
<line x1="2551.000000" y1="-952.627930" x2="2501.000000" y2="-1039.230469" stroke-width="10" stroke="black" />
<line x1="2501.000000" y1="-1039.230469" x2="2451.000000" y2="-1125.833008" stroke-width="10" stroke="black" />
<line x1="2451.000000" y1="-1125.833008" x2="2401.000000" y2="-1212.435547" stroke-width="10" stroke="black" />
<line x1="2401.000000" y1="-1212.435547" x2="2351.000000" y2="-1299.038086" stroke-width="10" stroke="black" />
<line x1="2351.000000" y1="-1299.038086" x2="2301.000000" y2="-1385.640625" stroke-width="10" stroke="black" />
<line x1="2301.000000" y1="-1385.640625" x2="2251.000000" y2="-1472.243164" stroke-width="10" stroke="black" />
<line x1="2251.000000" y1="-1472.243164" x2="2201.000000" y2="-1558.845703" stroke-width="10" stroke="black" />
<line x1="2201.000000" y1="-1558.845703" x2="2151.000000" y2="-1645.448242" stroke-width="10" stroke="black" />
<line x1="2151.000000" y1="-1645.448242" x2="2101.000000" y2="-1732.050781" stroke-width="10" stroke="black" />
<line x1="2101.000000" y1="-1732.050781" x2="2051.000000" y2="-1818.653320" stroke-width="10" stroke="black" />
<line x1="2051.000000" y1="-1818.653320" x2="2001.000000" y2="-1905.255859" stroke-width="10" stroke="black" />
<line x1="2001.000000" y1="-1905.255859" x2="1951.000000" y2="-1991.858398" stroke-width="10" stroke="black" />
<line x1="1951.000000" y1="-1991.858398" x2="1901.000000" y2="-2078.460938" stroke-width="10" stroke="black" />
<line x1="1901.000000" y1="-2078.460938" x2="1851.000000" y2="-2165.063477" stroke-width="10" stroke="black" />
<line x1="1851.000000" y1="-2165.063477" x2="1801.000000" y2="-2251.666016" stroke-width="10" stroke="black" />
<line x1="1801.000000" y1="-2251.666016" x2="1751.000000" y2="-2338.268555" stroke-width="10" stroke="black" />
<line x1="1751.000000" y1="-2338.268555" x2="1701.000000" y2="-2424.871094" stroke-width="10" stroke="black" />
<line x1="1701.000000" y1="-2424.871094" x2="1651.000000" y2="-2511.473633" stroke-width="10" stroke="black" />
<line x1="1651.000000" y1="-2511.473633" x2="1601.000000" y2="-2598.076172" stroke-width="10" stroke="black" />
<line x1="1601.000000" y1="-2598.076172" x2="1551.000000" y2="-2684.678711" stroke-width="10" stroke="black" />
<line x1="1551.000000" y1="-2684.678711" x2="1501.000000" y2="-2771.281250" stroke-width="10" stroke="black" />
<line x1="1501.000000" y1="-2771.281250" x2="1451.000000" y2="-2684.678711" stroke-width="10" stroke="black" />
<line x1="1451.000000" y1="-2684.678711" x2="1401.000000" y2="-2598.076172" stroke-width="10" stroke="black" />
<line x1="1401.000000" y1="-2598.076172" x2="1351.000000" y2="-2511.473633" stroke-width="10" stroke="black" />
<line x1="1351.000000" y1="-2511.473633" x2="1301.000000" y2="-2424.871094" stroke-width="10" stroke="black" />
<line x1="1301.000000" y1="-2424.871094" x2="1251.000000" y2="-2338.268555" stroke-width="10" stroke="black" />
<line x1="1251.000000" y1="-2338.268555" x2="1201.000000" y2="-2251.666016" stroke-width="10" stroke="black" />
<line x1="1201.000000" y1="-2251.666016" x2="1151.000000" y2="-2165.063477" stroke-width="10" stroke="black" />
<line x1="1151.000000" y1="-2165.063477" x2="1101.000000" y2="-2078.460938" stroke-width="10" stroke="black" />
<line x1="1101.000000" y1="-2078.460938" x2="1051.000000" y2="-1991.858398" stroke-width="10" stroke="black" />
<line x1="1051.000000" y1="-1991.858398" x2="1001.000000" y2="-1905.255859" stroke-width="10" stroke="black" />
<line x1="1001.000000" y1="-1905.255859" x2="951.000000" y2="-1818.653320" stroke-width="10" stroke="black" />
<line x1="951.000000" y1="-1818.653320" x2="901.000000" y2="-1732.050781" stroke-width="10" stroke="black" />
<line x1="901.000000" y1="-1732.050781" x2="851.000000" y2="-1645.448242" stroke-width="10" stroke="black" />
<line x1="851.000000" y1="-1645.448242" x2="801.000000" y2="-1558.845703" stroke-width="10" stroke="black" />
<line x1="801.000000" y1="-1558.845703" x2="751.000000" y2="-1472.243164" stroke-width="10" stroke="black" />
<line x1="751.000000" y1="-1472.243164" x2="701.000000" y2="-1385.640625" stroke-width="10" stroke="black" />
<line x1="701.000000" y1="-1385.640625" x2="651.000000" y2="-1299.038086" stroke-width="10" stroke="black" />
<line x1="651.000000" y1="-1299.038086" x2="601.000000" y2="-1212.435547" stroke-width="10" stroke="black" />
<line x1="601.000000" y1="-1212.435547" x2="551.000000" y2="-1125.833008" stroke-width="10" stroke="black" />
<line x1="551.000000" y1="-1125.833008" x2="501.000000" y2="-1039.230469" stroke-width="10" stroke="black" />
<line x1="501.000000" y1="-1039.230469" x2="451.000000" y2="-952.627930" stroke-width="10" stroke="black" />
<line x1="451.000000" y1="-952.627930" x2="401.000000" y2="-866.025391" stroke-width="10" stroke="black" />
<line x1="401.000000" y1="-866.025391" x2="351.000000" y2="-779.422852" stroke-width="10" stroke="black" />
<line x1="351.000000" y1="-779.422852" x2="301.000000" y2="-692.820313" stroke-width="10" stroke="black" />
<line x1="301.000000" y1="-692.820313" x2="251.000000" y2="-606.217773" stroke-width="10" stroke="black" />
<line x1="251.000000" y1="-606.217773" x2="201.000000" y2="-519.615234" stroke-width="10" stroke="black" />
<line x1="201.000000" y1="-519.615234" x2="151.000000" y2="-433.012695" stroke-width="10" stroke="black" />
<line x1="151.000000" y1="-433.012695" x2="101.000000" y2="-346.410156" stroke-width="10" stroke="black" />
<line x1="101.000000" y1="-346.410156" x2="51.000000" y2="-259.807617" stroke-width="10" stroke="black" />
<line x1="51.000000" y1="-259.807617" x2="1.000000" y2="-173.205078" stroke-width="10" stroke="black" />
<line x1="1.000000" y1="-173.205078" x2="-49.000000" y2="-86.602539" stroke-width="10" stroke="black" />
<line x1="-49.000000" y1="-86.602539" x2="-99.000000" y2="-0.000000" stroke-width="10" stroke="black" />
</svg>
